<svg width="20" height="20" viewBox="0 0 20 20" fill="none" xmlns="http://www.w3.org/2000/svg">
<path d="M18.9279 1.58596C19.2907 1.22315 19.2907 0.634917 18.9279 0.272107C18.5651 -0.0907024 17.9769 -0.0907024 17.6141 0.272107L9.60001 8.28617L1.58596 0.272111C1.22315 -0.0906987 0.634917 -0.0906987 0.272107 0.272111C-0.0907024 0.634921 -0.0907024 1.22315 0.272107 1.58596L8.28616 9.60002L0.272141 17.614C-0.090669 17.9768 -0.090669 18.5651 0.272141 18.9279C0.63495 19.2907 1.22318 19.2907 1.58599 18.9279L9.60001 10.9139L17.614 18.9279C17.9768 19.2907 18.5651 19.2907 18.9279 18.9279C19.2907 18.5651 19.2907 17.9769 18.9279 17.614L10.9139 9.60002L18.9279 1.58596Z" fill="#6E6E6E"/>
</svg>
