<svg width="103" height="36" viewBox="0 0 103 36" fill="none" xmlns="http://www.w3.org/2000/svg">
<g clip-path="url(#clip0_90_7692)">
<path d="M23.1761 17.4655C22.7682 17.4547 22.3658 17.3675 21.99 17.2085C21.615 17.062 21.2299 16.8168 20.8223 16.5564C19.5977 15.7772 18.2098 14.8933 16.5667 16.4033L16.3398 16.1547C18.173 14.4697 19.7417 15.4691 21.0023 16.2719C21.3957 16.523 21.7673 16.7598 22.1122 16.8946C24.0199 17.6429 24.5347 16.4552 24.9892 15.4072C25.098 15.1561 25.2035 14.8723 25.3156 14.5702C25.7819 13.3146 26.362 11.7602 27.6879 11.4338C28.5701 11.217 29.7412 11.7561 30.9809 12.3269C32.5788 13.0627 34.232 13.8227 35.1226 12.8291L35.3737 13.0526C34.3182 14.2303 32.5512 13.4176 30.8427 12.6341C29.7094 12.1126 28.5375 11.5736 27.7691 11.7627C26.6156 12.0465 26.0949 13.451 25.6312 14.6924C25.5174 14.9962 25.4102 15.2842 25.2964 15.5436C24.9498 16.3422 24.4635 17.4655 23.1761 17.4655Z" fill="#11BBD1"/>
<path d="M30.0373 12.0933C30.0678 12.0887 30.0965 12.0759 30.1204 12.0563C30.1442 12.0367 30.1624 12.011 30.1729 11.982L30.3754 11.4254C30.3848 11.396 30.402 11.3698 30.4253 11.3496C30.4485 11.3294 30.4769 11.316 30.5073 11.3109C30.5376 11.3058 30.5688 11.3092 30.5974 11.3207C30.626 11.3321 30.6508 11.3513 30.6693 11.376L31.1012 11.9058C31.1203 11.9293 31.1328 11.9575 31.1375 11.9874C31.1422 12.0173 31.1389 12.0479 31.1279 12.0761C31.1169 12.1044 31.0987 12.1292 31.075 12.1481C31.0514 12.167 31.0231 12.1793 30.9932 12.1837L30.4073 12.2674C30.3767 12.2715 30.3478 12.284 30.3239 12.3035C30.2999 12.323 30.2819 12.3488 30.2716 12.3779L30.0682 12.9354C30.0588 12.9645 30.0416 12.9906 30.0184 13.0106C29.9952 13.0306 29.967 13.0439 29.9368 13.049C29.9065 13.0541 29.8755 13.0508 29.847 13.0395C29.8185 13.0282 29.7937 13.0092 29.7753 12.9848L29.3425 12.4541C29.3222 12.431 29.3087 12.4029 29.3033 12.3726C29.298 12.3424 29.3011 12.3113 29.3122 12.2827C29.3234 12.2541 29.3421 12.2291 29.3665 12.2105C29.3909 12.1918 29.42 12.1803 29.4505 12.177L30.0373 12.0933Z" fill="#11BBD1"/>
<path d="M33.9015 13.3731C33.8962 13.3963 33.8974 13.4206 33.9047 13.4432C33.9121 13.4659 33.9254 13.4862 33.9433 13.502L34.2882 13.8041C34.3057 13.8195 34.3189 13.8393 34.3264 13.8614C34.3338 13.8835 34.3353 13.9072 34.3306 13.9301C34.3259 13.953 34.3153 13.9742 34.2997 13.9916C34.2842 14.009 34.2643 14.022 34.2421 14.0293L33.7399 14.1925C33.7178 14.1992 33.6944 14.2 33.672 14.1948C33.6495 14.1896 33.6288 14.1786 33.6119 14.163C33.595 14.1473 33.5824 14.1275 33.5755 14.1056C33.5686 14.0836 33.5676 14.0602 33.5725 14.0377L33.6738 13.5907C33.6792 13.5674 33.6781 13.5431 33.6707 13.5204C33.6634 13.4977 33.65 13.4774 33.6319 13.4618L33.2871 13.1596C33.2695 13.1442 33.2564 13.1244 33.249 13.1022C33.2416 13.08 33.2402 13.0563 33.245 13.0334C33.2497 13.0105 33.2605 12.9893 33.2761 12.9719C33.2917 12.9545 33.3117 12.9416 33.3339 12.9345L33.8362 12.767C33.8583 12.7606 33.8817 12.76 33.9041 12.7653C33.9266 12.7706 33.9472 12.7817 33.9641 12.7973C33.981 12.813 33.9935 12.8328 34.0004 12.8548C34.0073 12.8768 34.0084 12.9002 34.0036 12.9227L33.9015 13.3731Z" fill="#11BBD1"/>
<path d="M26.2472 12.7706C26.2519 12.7953 26.2641 12.818 26.282 12.8356C26.3 12.8533 26.3229 12.865 26.3477 12.8693L26.8357 12.9614C26.8606 12.9676 26.8834 12.9806 26.9014 12.9989C26.9194 13.0173 26.932 13.0403 26.9378 13.0654C26.9435 13.0904 26.9421 13.1166 26.9339 13.141C26.9256 13.1653 26.9107 13.1869 26.8909 13.2033L26.4523 13.6444C26.4361 13.6645 26.4147 13.6796 26.3905 13.6883C26.3662 13.6969 26.3401 13.6987 26.3149 13.6934C26.2897 13.6881 26.2664 13.676 26.2477 13.6583C26.229 13.6407 26.2155 13.6182 26.2087 13.5934L26.1091 13.1071C26.1042 13.0822 26.092 13.0593 26.0739 13.0416C26.0558 13.0238 26.0328 13.0119 26.0078 13.0075L25.5206 12.9162C25.4955 12.9103 25.4725 12.8975 25.4542 12.8791C25.436 12.8608 25.4233 12.8377 25.4175 12.8125C25.4118 12.7873 25.4132 12.761 25.4217 12.7366C25.4301 12.7121 25.4453 12.6906 25.4654 12.6743L25.9023 12.2299C25.9184 12.2098 25.9397 12.1946 25.9639 12.1859C25.9881 12.1772 26.0143 12.1754 26.0394 12.1807C26.0646 12.186 26.0878 12.1982 26.1064 12.2159C26.1251 12.2335 26.1385 12.2561 26.1451 12.2809L26.2472 12.7706Z" fill="#11BBD1"/>
<path d="M24.5917 16.294C24.6076 16.3221 24.6309 16.3453 24.6591 16.3611C24.6873 16.3769 24.7193 16.3847 24.7516 16.3835L25.3727 16.3626C25.4044 16.3617 25.4358 16.3693 25.4636 16.3847C25.4915 16.4 25.5147 16.4225 25.5309 16.4498C25.5471 16.4771 25.5557 16.5083 25.5559 16.54C25.556 16.5718 25.5477 16.603 25.5317 16.6305L25.176 17.2632C25.1609 17.2912 25.1386 17.3146 25.1114 17.331C25.0843 17.3475 25.0532 17.3563 25.0215 17.3568C24.9898 17.3572 24.9585 17.3491 24.9309 17.3334C24.9033 17.3177 24.8804 17.2949 24.8646 17.2674L24.5591 16.7267C24.5433 16.6985 24.52 16.6751 24.4918 16.6593C24.4636 16.6435 24.4315 16.6358 24.3992 16.6371L23.7789 16.6581C23.7472 16.659 23.7158 16.6513 23.6879 16.636C23.6601 16.6207 23.6369 16.5982 23.6207 16.5709C23.6045 16.5436 23.5958 16.5124 23.5957 16.4807C23.5956 16.4489 23.6039 16.4177 23.6199 16.3902L23.9748 15.7574C23.9903 15.7297 24.0128 15.7066 24.0402 15.6906C24.0676 15.6745 24.0987 15.666 24.1305 15.666C24.1622 15.666 24.1934 15.6745 24.2208 15.6906C24.2481 15.7066 24.2707 15.7297 24.2862 15.7574L24.5917 16.294Z" fill="#11BBD1"/>
<path d="M19.6127 15.7405C19.6393 15.7315 19.6621 15.7138 19.6773 15.6902C19.6925 15.6667 19.6992 15.6386 19.6964 15.6107L19.6605 15.0432C19.6529 14.916 19.8019 14.8607 19.9266 14.9436L20.5728 15.373C20.6976 15.4567 20.7043 15.6149 20.5837 15.6568L20.0472 15.8434C20.0208 15.8526 19.9982 15.8704 19.983 15.8939C19.9679 15.9174 19.961 15.9453 19.9635 15.9732L19.9995 16.5407C20.0078 16.6679 19.8588 16.724 19.7333 16.6403L19.0862 16.2109C18.9607 16.1272 18.9548 15.969 19.0745 15.9271L19.6127 15.7405Z" fill="#11BBD1"/>
<path d="M21.9157 35.0884L21.9383 35.0667V34.7226C19.5384 33.7467 18.1163 30.9928 18.0217 28.6123C18.0016 26.1464 19.5008 23.6018 22.0479 22.9113C22.1258 22.2374 22.1894 22.0742 23.3789 22.0742C23.6543 22.0742 24.0485 22.0742 24.1598 22.3756V22.8058C28.5226 23.5876 29.25 28.9036 28.1861 32.3999C27.349 33.8086 25.6958 34.7084 24.0502 34.9595C23.7991 35.3337 23.0758 35.2943 22.6531 35.3362C22.3183 35.3312 21.9751 35.4333 21.9157 35.0884ZM20.9037 30.1834C21.1347 30.7585 21.4394 31.3151 21.96 31.6675L22.0262 25.6659C21.4235 26.0116 21.1138 26.8729 20.8819 27.3978C20.5362 28.3151 20.5756 29.2175 20.9037 30.1834ZM25.2564 31.038C26.0198 29.6829 25.8859 28.1595 25.3108 26.8244C25.022 26.1548 24.8345 25.7789 24.1347 25.537L24.0904 31.9906C24.6512 31.8608 25.0103 31.4113 25.2597 31.038H25.2564Z" fill="#11BBD1"/>
<path d="M29.3714 32.1573C28.618 29.6546 30.7944 26.3466 33.5667 26.8623C36.329 27.5662 37.1326 31.8049 34.8558 33.4748C33.0804 34.8317 30.0017 34.6693 29.3714 32.1573ZM31.5377 31.2215C32.1546 33.0404 34.875 31.8803 34.3686 30.1652C33.6747 27.3276 30.6814 28.7816 31.5377 31.2215Z" fill="#11BBD1"/>
<path d="M39.0146 34.5274C38.9308 33.6368 38.9359 28.5008 38.8865 27.7341C38.9216 27.5809 36.7152 27.9065 36.6457 27.8755C36.5025 27.9065 36.4875 27.8136 36.4498 27.7341C36.392 27.4076 36.2179 25.8566 36.7846 25.9813C37.0902 25.9654 42.377 25.8934 42.5913 25.8926C42.6207 25.8943 42.6488 25.9056 42.6712 25.9248C42.6936 25.944 42.709 25.9701 42.7152 25.9989C42.8608 26.7212 42.8634 27.0477 42.8039 27.7165C42.7487 27.8454 42.7303 27.8563 42.5913 27.8404C41.894 27.7567 40.7858 27.6194 40.7088 27.7198C40.6786 27.7608 40.769 34.4035 40.769 34.4035C40.5313 34.6547 40.0517 34.576 39.7394 34.6254C39.5369 34.6103 39.1175 34.7442 39.0146 34.5274Z" fill="#11BBD1"/>
<path d="M71.5009 34.7657C71.4172 33.8743 71.4222 28.7391 71.3728 27.9715C71.408 27.8183 69.2015 28.1439 69.132 28.113C68.9889 28.1439 68.9738 28.051 68.9361 27.9715C68.8784 27.6451 68.7043 26.094 69.271 26.2187C69.5765 26.2037 74.8634 26.1309 75.0776 26.1309C75.107 26.1323 75.1352 26.1434 75.1576 26.1625C75.18 26.1815 75.1955 26.2075 75.2015 26.2363C75.3472 26.9587 75.3497 27.2851 75.2903 27.9539C75.235 28.0828 75.2166 28.0937 75.0776 28.0778C74.3804 27.9983 73.2721 27.8568 73.1951 27.9581C73.165 27.9983 73.2554 34.6418 73.2554 34.6418C73.0176 34.8929 72.538 34.8143 72.2258 34.8628C72.0232 34.8477 71.6038 34.9817 71.5009 34.7657Z" fill="#11BBD1"/>
<path d="M84.1066 34.7657C84.0229 33.8743 84.0279 28.7391 83.9785 27.9715C84.0137 27.8183 81.8072 28.1439 81.7369 28.113C81.5946 28.1439 81.5795 28.051 81.5419 27.9715C81.4841 27.6451 81.3092 26.094 81.8767 26.2187C82.1814 26.2037 87.4691 26.1309 87.6834 26.1309C87.7128 26.1323 87.7409 26.1434 87.7633 26.1625C87.7857 26.1815 87.8012 26.2075 87.8073 26.2363C87.9529 26.9587 87.9554 27.2851 87.896 27.9539C87.8407 28.0828 87.8223 28.0937 87.6834 28.0778C86.9861 27.9983 85.8778 27.8568 85.8008 27.9581C85.7699 27.9983 85.8603 34.6418 85.8603 34.6418C85.6234 34.8929 85.1437 34.8143 84.8315 34.8628C84.6273 34.8477 84.2087 34.9817 84.1066 34.7657Z" fill="#11BBD1"/>
<path d="M42.8981 32.1998C42.1088 29.6929 44.2826 26.3665 47.0608 26.8428C49.8432 27.5041 50.7012 31.7453 48.4294 33.4428C46.6666 34.8206 43.5644 34.7126 42.8981 32.1998ZM45.067 31.2372C45.7073 33.0478 48.4303 31.8516 47.9038 30.1416C47.1755 27.3099 44.1805 28.8032 45.067 31.2372Z" fill="#11BBD1"/>
<path d="M58.7451 33.5649C58.7116 33.0468 58.7827 32.768 58.7493 32.1813C58.1867 32.0808 53.8943 31.5677 53.8232 32.1712L53.6457 34.4136C53.5829 35.3344 52.6831 35.4691 51.9172 35.2641C51.1337 35.1059 51.1295 34.6162 51.1052 33.9583C51.0634 33.3724 50.9931 33.1279 50.9587 32.5554C50.9705 31.9569 50.7637 31.1961 51.0868 30.6076C51.3095 30.323 51.5489 30.0828 51.8259 29.7706C53.8047 27.873 54.2417 25.0271 54.3162 22.4265C56.2414 22.3645 58.232 22.4658 60.1756 22.4541L60.3681 22.5612C60.5732 25.0723 60.5255 27.5834 60.718 30.0945C61.1365 30.2946 61.2412 30.688 61.268 31.1827C61.2906 31.5309 61.3316 31.7686 61.3517 32.0867C61.3969 32.7337 61.4479 33.2711 61.4295 33.9097C61.4295 34.54 61.5333 35.326 60.6368 35.3402C59.8642 35.3963 58.8095 34.8313 58.7719 33.9717L58.7451 33.5649ZM55.0386 29.9991C55.8873 30.1196 56.9638 30.1079 57.836 30.0318C57.9589 28.2389 57.9275 26.4388 57.7423 24.6513L57.6309 24.5383L56.3829 24.622L56.3101 24.7476C56.2188 26.2057 55.8982 28.7846 54.9708 29.9238L55.0386 29.9991Z" fill="#11BBD1"/>
<path d="M62.4023 30.7644C62.4241 29.2268 62.7707 27.2246 64.2874 26.4345C64.8775 26.1455 65.5576 26.1004 66.1806 26.3091C66.8036 26.5177 67.3194 26.9633 67.6164 27.5494C68.0818 28.3806 68.1848 29.3072 68.1881 30.2112C68.1781 30.4623 68.2124 30.7427 68.086 31.0716C67.968 31.3771 67.6591 31.5881 67.3418 31.6701C66.5776 31.8685 64.8616 31.8551 64.8616 31.8551C64.8117 31.8571 64.7628 31.8699 64.7182 31.8925C64.6736 31.9151 64.6344 31.947 64.6032 31.986C64.5721 32.025 64.5496 32.0703 64.5374 32.1188C64.5253 32.1673 64.5236 32.2178 64.5327 32.2669C64.5645 32.518 64.7294 32.7541 65.0617 32.8855C65.7138 33.1433 67.3703 32.8018 67.5503 32.8202C67.7738 32.8461 67.7562 34.0615 67.5754 34.1703C66.642 34.7353 64.603 34.9103 63.5893 34.1795C62.5162 33.407 62.4249 31.9329 62.4023 30.7644ZM64.4021 29.9492C64.4021 30.4146 65.0667 30.4514 65.5212 30.4146C65.9013 30.3844 66.5257 30.3501 66.5609 29.919C66.6211 29.1716 66.5357 28.4961 66.1155 28.0943C65.8343 27.8264 65.1814 27.8566 64.9227 28.1228C64.5762 28.4802 64.4021 29.5139 64.4021 29.9492Z" fill="#11BBD1"/>
<path d="M75.3369 31.1484C75.2909 30.7148 75.2323 29.9222 75.7044 29.0558C76.1882 28.1719 76.8938 27.4253 77.8698 27.0746C78.5395 26.8436 80.4798 26.5196 80.5116 27.6128C80.5016 28.0062 80.5953 28.896 80.0596 28.7905C78.9187 28.5637 77.6899 28.6616 77.3735 30.3666V30.411C77.3191 32.0943 78.1955 32.4977 78.9932 32.6802C79.8503 32.8761 80.859 32.2382 80.7276 33.5013C80.7167 33.7934 80.6296 34.0672 80.3417 34.217C79.636 34.5777 78.5336 34.6832 77.8489 34.4731C76.3539 34.0128 75.5236 32.9196 75.3369 31.1484Z" fill="#11BBD1"/>
<path d="M89.1334 27.0597C89.1335 26.9582 89.1721 26.8605 89.2414 26.7863C89.3107 26.712 89.4054 26.6668 89.5067 26.6596C89.7043 26.6445 90.2241 26.6311 90.3756 26.6211C91.6914 26.6546 93.6116 26.7542 93.7029 28.4977C93.728 28.9807 93.2224 29.7164 92.8784 29.9517C93.7991 30.1944 94.447 30.5593 94.9459 31.3704C95.4423 32.1974 95.1183 33.658 94.4094 34.1611C93.8745 34.5168 92.7294 34.7085 91.1314 34.7027L89.1133 34.6265L89.1334 27.0597ZM90.6836 29.2201C90.6836 29.3373 90.9967 29.3113 91.0419 29.313C91.8161 29.3465 92.0589 28.707 91.8019 28.3797C91.6571 28.1956 91.1674 28.0959 90.6593 28.1847C90.6702 28.3521 90.6685 29.0544 90.6836 29.2201ZM90.9021 33.1659C91.3132 33.2416 91.7322 33.2655 92.1493 33.237C92.8424 33.1533 93.2232 32.9315 93.2224 32.4C93.2224 31.455 91.7994 31.3997 90.8728 31.4156L90.9021 33.1659Z" fill="#11BBD1"/>
<path d="M96.41 32.7187C95.1728 30.2829 96.7532 26.564 99.5966 26.6218C102.477 26.8586 104.1 31.0438 102.14 33.1272C100.644 34.7954 97.5107 35.1696 96.41 32.7187ZM98.3971 31.4021C99.3556 33.1431 101.855 31.51 101.025 29.846C99.7967 27.0813 97.0779 29.0575 98.3971 31.4021Z" fill="#11BBD1"/>
<path d="M21.9157 35.0884L21.9383 35.0667V34.7226C19.5384 33.7467 18.1163 30.9928 18.0217 28.6123C18.0016 26.1464 19.5008 23.6018 22.0479 22.9113C22.1258 22.2374 22.1894 22.0742 23.3789 22.0742C23.6543 22.0742 24.0485 22.0742 24.1598 22.3756V22.8058C28.5226 23.5876 29.25 28.9036 28.1861 32.3999C27.349 33.8086 25.6958 34.7084 24.0502 34.9595C23.7991 35.3337 23.0758 35.2943 22.6531 35.3362C22.3183 35.3312 21.9751 35.4333 21.9157 35.0884ZM20.9037 30.1834C21.1347 30.7585 21.4394 31.3151 21.96 31.6675L22.0262 25.6659C21.4235 26.0116 21.1138 26.8729 20.8819 27.3978C20.5362 28.3151 20.5756 29.2175 20.9037 30.1834ZM25.2564 31.038C26.0198 29.6829 25.8859 28.1595 25.3108 26.8244C25.022 26.1548 24.8345 25.7789 24.1347 25.537L24.0904 31.9906C24.6512 31.8608 25.0103 31.4113 25.2597 31.038H25.2564Z" fill="#11BBD1"/>
<path d="M29.3714 32.1573C28.618 29.6546 30.7944 26.3466 33.5667 26.8623C36.329 27.5662 37.1326 31.8049 34.8558 33.4748C33.0804 34.8317 30.0017 34.6693 29.3714 32.1573ZM31.5377 31.2215C32.1546 33.0404 34.875 31.8803 34.3686 30.1652C33.6747 27.3276 30.6814 28.7816 31.5377 31.2215Z" fill="#11BBD1"/>
<path d="M39.0146 34.5274C38.9308 33.6368 38.9359 28.5008 38.8865 27.7341C38.9216 27.5809 36.7152 27.9065 36.6457 27.8755C36.5025 27.9065 36.4875 27.8136 36.4498 27.7341C36.392 27.4076 36.2179 25.8566 36.7846 25.9813C37.0902 25.9654 42.377 25.8934 42.5913 25.8926C42.6207 25.8943 42.6488 25.9056 42.6712 25.9248C42.6936 25.944 42.709 25.9701 42.7152 25.9989C42.8608 26.7212 42.8634 27.0477 42.8039 27.7165C42.7487 27.8454 42.7303 27.8563 42.5913 27.8404C41.894 27.7567 40.7858 27.6194 40.7088 27.7198C40.6786 27.7608 40.769 34.4035 40.769 34.4035C40.5313 34.6547 40.0517 34.576 39.7394 34.6254C39.5369 34.6103 39.1175 34.7442 39.0146 34.5274Z" fill="#11BBD1"/>
<path d="M71.5009 34.7657C71.4172 33.8743 71.4222 28.7391 71.3728 27.9715C71.408 27.8183 69.2015 28.1439 69.132 28.113C68.9889 28.1439 68.9738 28.051 68.9361 27.9715C68.8784 27.6451 68.7043 26.094 69.271 26.2187C69.5765 26.2037 74.8634 26.1309 75.0776 26.1309C75.107 26.1323 75.1352 26.1434 75.1576 26.1625C75.18 26.1815 75.1955 26.2075 75.2015 26.2363C75.3472 26.9587 75.3497 27.2851 75.2903 27.9539C75.235 28.0828 75.2166 28.0937 75.0776 28.0778C74.3804 27.9983 73.2721 27.8568 73.1951 27.9581C73.165 27.9983 73.2554 34.6418 73.2554 34.6418C73.0176 34.8929 72.538 34.8143 72.2258 34.8628C72.0232 34.8477 71.6038 34.9817 71.5009 34.7657Z" fill="#11BBD1"/>
<path d="M84.1066 34.7657C84.0229 33.8743 84.0279 28.7391 83.9785 27.9715C84.0137 27.8183 81.8072 28.1439 81.7369 28.113C81.5946 28.1439 81.5795 28.051 81.5419 27.9715C81.4841 27.6451 81.3092 26.094 81.8767 26.2187C82.1814 26.2037 87.4691 26.1309 87.6834 26.1309C87.7128 26.1323 87.7409 26.1434 87.7633 26.1625C87.7857 26.1815 87.8012 26.2075 87.8073 26.2363C87.9529 26.9587 87.9554 27.2851 87.896 27.9539C87.8407 28.0828 87.8223 28.0937 87.6834 28.0778C86.9861 27.9983 85.8778 27.8568 85.8008 27.9581C85.7699 27.9983 85.8603 34.6418 85.8603 34.6418C85.6234 34.8929 85.1437 34.8143 84.8315 34.8628C84.6273 34.8477 84.2087 34.9817 84.1066 34.7657Z" fill="#11BBD1"/>
<path d="M42.8981 32.1998C42.1088 29.6929 44.2826 26.3665 47.0608 26.8428C49.8432 27.5041 50.7012 31.7453 48.4294 33.4428C46.6666 34.8206 43.5644 34.7126 42.8981 32.1998ZM45.067 31.2372C45.7073 33.0478 48.4303 31.8516 47.9038 30.1416C47.1755 27.3099 44.1805 28.8032 45.067 31.2372Z" fill="#11BBD1"/>
<path d="M58.7451 33.5649C58.7116 33.0468 58.7827 32.768 58.7493 32.1813C58.1867 32.0808 53.8943 31.5677 53.8232 32.1712L53.6457 34.4136C53.5829 35.3344 52.6831 35.4691 51.9172 35.2641C51.1337 35.1059 51.1295 34.6162 51.1052 33.9583C51.0634 33.3724 50.9931 33.1279 50.9587 32.5554C50.9705 31.9569 50.7637 31.1961 51.0868 30.6076C51.3095 30.323 51.5489 30.0828 51.8259 29.7706C53.8047 27.873 54.2417 25.0271 54.3162 22.4265C56.2414 22.3645 58.232 22.4658 60.1756 22.4541L60.3681 22.5612C60.5732 25.0723 60.5255 27.5834 60.718 30.0945C61.1365 30.2946 61.2412 30.688 61.268 31.1827C61.2906 31.5309 61.3316 31.7686 61.3517 32.0867C61.3969 32.7337 61.4479 33.2711 61.4295 33.9097C61.4295 34.54 61.5333 35.326 60.6368 35.3402C59.8642 35.3963 58.8095 34.8313 58.7719 33.9717L58.7451 33.5649ZM55.0386 29.9991C55.8873 30.1196 56.9638 30.1079 57.836 30.0318C57.9589 28.2389 57.9275 26.4388 57.7423 24.6513L57.6309 24.5383L56.3829 24.622L56.3101 24.7476C56.2188 26.2057 55.8982 28.7846 54.9708 29.9238L55.0386 29.9991Z" fill="#11BBD1"/>
<path d="M62.4023 30.7644C62.4241 29.2268 62.7707 27.2246 64.2874 26.4345C64.8775 26.1455 65.5576 26.1004 66.1806 26.3091C66.8036 26.5177 67.3194 26.9633 67.6164 27.5494C68.0818 28.3806 68.1848 29.3072 68.1881 30.2112C68.1781 30.4623 68.2124 30.7427 68.086 31.0716C67.968 31.3771 67.6591 31.5881 67.3418 31.6701C66.5776 31.8685 64.8616 31.8551 64.8616 31.8551C64.8117 31.8571 64.7628 31.8699 64.7182 31.8925C64.6736 31.9151 64.6344 31.947 64.6032 31.986C64.5721 32.025 64.5496 32.0703 64.5374 32.1188C64.5253 32.1673 64.5236 32.2178 64.5327 32.2669C64.5645 32.518 64.7294 32.7541 65.0617 32.8855C65.7138 33.1433 67.3703 32.8018 67.5503 32.8202C67.7738 32.8461 67.7562 34.0615 67.5754 34.1703C66.642 34.7353 64.603 34.9103 63.5893 34.1795C62.5162 33.407 62.4249 31.9329 62.4023 30.7644ZM64.4021 29.9492C64.4021 30.4146 65.0667 30.4514 65.5212 30.4146C65.9013 30.3844 66.5257 30.3501 66.5609 29.919C66.6211 29.1716 66.5357 28.4961 66.1155 28.0943C65.8343 27.8264 65.1814 27.8566 64.9227 28.1228C64.5762 28.4802 64.4021 29.5139 64.4021 29.9492Z" fill="#11BBD1"/>
<path d="M75.3369 31.1484C75.2909 30.7148 75.2323 29.9222 75.7044 29.0558C76.1882 28.1719 76.8938 27.4253 77.8698 27.0746C78.5395 26.8436 80.4798 26.5196 80.5116 27.6128C80.5016 28.0062 80.5953 28.896 80.0596 28.7905C78.9187 28.5637 77.6899 28.6616 77.3735 30.3666V30.411C77.3191 32.0943 78.1955 32.4977 78.9932 32.6802C79.8503 32.8761 80.859 32.2382 80.7276 33.5013C80.7167 33.7934 80.6296 34.0672 80.3417 34.217C79.636 34.5777 78.5336 34.6832 77.8489 34.4731C76.3539 34.0128 75.5236 32.9196 75.3369 31.1484Z" fill="#11BBD1"/>
<path d="M89.1334 27.0597C89.1335 26.9582 89.1721 26.8605 89.2414 26.7863C89.3107 26.712 89.4054 26.6668 89.5067 26.6596C89.7043 26.6445 90.2241 26.6311 90.3756 26.6211C91.6914 26.6546 93.6116 26.7542 93.7029 28.4977C93.728 28.9807 93.2224 29.7164 92.8784 29.9517C93.7991 30.1944 94.447 30.5593 94.9459 31.3704C95.4423 32.1974 95.1183 33.658 94.4094 34.1611C93.8745 34.5168 92.7294 34.7085 91.1314 34.7027L89.1133 34.6265L89.1334 27.0597ZM90.6836 29.2201C90.6836 29.3373 90.9967 29.3113 91.0419 29.313C91.8161 29.3465 92.0589 28.707 91.8019 28.3797C91.6571 28.1956 91.1674 28.0959 90.6593 28.1847C90.6702 28.3521 90.6685 29.0544 90.6836 29.2201ZM90.9021 33.1659C91.3132 33.2416 91.7322 33.2655 92.1493 33.237C92.8424 33.1533 93.2232 32.9315 93.2224 32.4C93.2224 31.455 91.7994 31.3997 90.8728 31.4156L90.9021 33.1659Z" fill="#11BBD1"/>
<path d="M96.41 32.7187C95.1728 30.2829 96.7532 26.564 99.5966 26.6218C102.477 26.8586 104.1 31.0438 102.14 33.1272C100.644 34.7954 97.5107 35.1696 96.41 32.7187ZM98.3971 31.4021C99.3556 33.1431 101.855 31.51 101.025 29.846C99.7967 27.0813 97.0779 29.0575 98.3971 31.4021Z" fill="#11BBD1"/>
<path d="M16.7887 16.1554C16.8883 16.3312 16.8548 16.6309 16.7552 16.8309C16.6556 17.031 16.3919 17.2637 16.1056 17.4261C15.7541 17.6261 15.4678 17.5692 15.2041 17.2637C15.0209 17.0439 14.8677 16.8007 14.7487 16.5405C14.5294 16.0851 14.3394 15.6147 14.0239 15.2096C13.756 14.8647 13.4379 14.5592 13.2002 14.1918C12.8463 13.6575 12.4564 13.148 12.0333 12.6667C11.932 12.5495 11.8341 12.4993 11.6851 12.5461C11.4633 12.6165 11.2791 12.5461 11.1101 12.3938C10.8481 12.1536 10.5794 11.92 10.3065 11.6932C10.1131 11.5317 10.0269 11.5601 9.93984 11.7978C9.76155 12.28 9.83856 12.7186 10.191 13.0919C10.3296 13.2254 10.4405 13.385 10.5174 13.5615C10.6391 13.8707 10.7789 14.1726 10.9359 14.4655C10.9993 14.5838 11.0318 14.7162 11.0305 14.8505C11.0305 15.2816 11.0305 15.7135 11.0356 16.1446C11.0242 16.566 11.141 16.981 11.3704 17.3348C11.5961 17.6729 11.7967 18.0271 11.9705 18.3945C12.1229 18.7243 12.1748 18.7134 11.7722 18.7854C11.3695 18.8574 11.3787 18.8557 11.3796 19.2466C11.3796 19.3629 11.3754 19.4801 11.3796 19.5965C11.4013 20.0493 11.3854 20.5047 11.5085 20.95C11.5688 21.1668 11.6123 21.3936 11.537 21.6196C11.4692 21.8609 11.4265 22.1086 11.4097 22.3587C11.3394 22.9655 11.3394 23.5816 11.1996 24.1792C11.1025 24.5978 10.9594 25.0087 10.8757 25.4306C10.7719 25.973 10.5542 26.4744 10.3651 26.9858C10.3392 27.07 10.2926 27.1463 10.2295 27.2076C9.60334 27.7492 9.11701 27.899 8.37705 27.5818C8.27571 27.5423 8.18427 27.4811 8.1092 27.4024C8.03413 27.3237 7.97726 27.2295 7.94262 27.1264C7.85474 26.8454 7.74618 26.5712 7.61784 26.3062C7.42699 25.9278 7.39183 25.5009 7.33742 25.0858C7.29976 24.7844 7.27632 24.4756 7.15662 24.1977C7.07291 24.0001 6.96661 23.8193 6.98167 23.5933C6.98753 23.4979 6.91136 23.4879 6.831 23.5054C6.61671 23.5506 6.52213 23.703 6.49032 23.9005C6.42076 24.3323 6.39915 24.7705 6.42587 25.2071C6.45767 25.7479 6.49199 26.2886 6.49199 26.831C6.47966 27.0528 6.51535 27.2746 6.59663 27.4813C6.7502 27.8287 6.84307 28.1999 6.87118 28.5787C6.93396 29.2751 6.98921 29.9715 7.03859 30.6713C7.07124 31.1065 7.14406 31.5292 7.39267 31.8992C7.56008 32.1503 7.73252 32.4014 7.92085 32.6392C8.00685 32.7455 8.0707 32.868 8.10865 32.9994C8.1466 33.1307 8.15789 33.2684 8.14184 33.4042C8.10124 33.7283 8.10124 34.0561 8.14184 34.3802C8.18369 34.6313 8.18536 34.6388 7.94345 34.7443C7.41809 34.9683 6.86335 35.1161 6.29612 35.1829H5.01207L4.86056 35.1444C4.62619 35.0866 4.52072 34.9276 4.56843 34.6899C4.58651 34.5738 4.62984 34.4632 4.69536 34.3657C4.76088 34.2682 4.84699 34.1863 4.94762 34.1257C5.16795 33.9925 5.35265 33.8078 5.48585 33.5875C5.61818 33.3979 5.69663 33.1759 5.71285 32.9453C5.72906 32.7146 5.68243 32.4838 5.57792 32.2776C5.5277 32.1721 5.49924 32.07 5.58964 31.9704C5.61091 31.9457 5.62453 31.9154 5.62884 31.8832C5.63315 31.8509 5.62797 31.8181 5.61392 31.7887C5.57892 31.6777 5.53698 31.5689 5.48836 31.4631C5.11261 30.7125 4.78031 29.9408 4.49309 29.1521C4.28299 28.572 4.05113 27.997 4.03188 27.3667C4.02686 27.0925 3.99177 26.8196 3.92724 26.5531C3.83549 26.2093 3.78188 25.8564 3.76736 25.5009C3.76318 25.3034 3.73472 25.1058 3.72133 24.9083C3.71569 24.8328 3.69238 24.7596 3.65326 24.6948C3.61415 24.6299 3.56033 24.5752 3.49616 24.535C2.97802 24.1608 3.0408 24.3098 3.06256 23.5866C3.06256 23.5632 3.06842 23.5406 3.07009 23.5163C3.10441 22.9404 3.23751 22.3754 3.25676 21.7979C3.27099 21.3015 3.20905 20.8077 2.96965 20.3749C2.75536 19.9874 2.65408 19.5756 2.56618 19.1545C2.54161 19.031 2.54663 18.9035 2.58082 18.7823C2.61501 18.6611 2.6774 18.5497 2.76289 18.4573C2.9303 18.2438 3.0634 18.0044 3.02322 17.7039C2.98806 17.4445 2.97885 17.1825 2.95291 16.9213C2.92696 16.6409 2.91022 16.3613 3.11195 16.127C3.2735 15.9378 3.3028 15.7085 3.32205 15.4724C3.35269 15.1827 3.36834 14.8916 3.36892 14.6002C3.36041 14.0927 3.24399 13.5928 3.0274 13.1337C2.93868 12.9496 2.76624 12.8182 2.69258 12.6257C2.65156 12.521 2.60887 12.521 2.54107 12.6131C2.37537 12.8118 2.28628 13.0633 2.28995 13.3221C2.29498 13.5029 2.28995 13.713 2.12254 13.8126C1.95513 13.9122 1.93588 14.0637 1.91244 14.237C1.86975 14.5718 1.89151 14.9233 1.75926 15.2523C1.72783 15.3295 1.72506 15.4154 1.75147 15.4945C1.77788 15.5735 1.83171 15.6405 1.90323 15.6833C2.05558 15.7922 2.21378 15.9093 2.37282 16.0182C2.4151 16.044 2.44913 16.0813 2.47093 16.1258C2.49272 16.1703 2.50138 16.22 2.49587 16.2693C2.48415 16.4492 2.47578 16.6292 2.46323 16.81C2.46618 16.8746 2.44767 16.9384 2.41057 16.9914C2.37347 17.0444 2.31988 17.0836 2.25815 17.103C2.17538 17.1322 2.10704 17.1921 2.0673 17.2704C2.03343 17.3445 1.97399 17.4039 1.89988 17.4378C1.84941 17.4577 1.80433 17.4893 1.76827 17.5298C1.73222 17.5704 1.70619 17.6188 1.69229 17.6713C1.64656 17.7885 1.56748 17.8897 1.46483 17.9625C1.36218 18.0352 1.24046 18.0763 1.11472 18.0806C0.869464 18.104 0.736372 17.935 0.638436 17.7366C0.568572 17.5894 0.522788 17.432 0.502832 17.2704C0.475209 17.0628 0.453446 16.8518 0.419126 16.6468C0.364717 16.332 0.322864 16.009 0.127829 15.7403C0.0394075 15.6294 -0.00579858 15.4902 0.000596415 15.3485C0.00812995 15.2154 0.00896701 15.0807 0.02236 14.9484C0.0619895 14.6284 0.154784 14.3172 0.296916 14.0277C0.429171 13.7431 0.388992 13.615 0.129504 13.4468C-0.0010777 13.3631 -0.0144707 13.2459 0.0173376 13.112C0.101044 12.7772 0.268455 12.4733 0.395688 12.1544C0.710423 11.3768 1.04943 10.6067 1.03018 9.73873C1.02516 9.50352 1.07957 9.27166 1.26958 9.10342C1.44452 8.94857 1.6178 8.79288 1.80027 8.64807C2.17611 8.35427 2.57707 8.09479 2.97216 7.83364C3.06758 7.77002 3.17473 7.70976 3.20737 7.58253C3.27554 7.35266 3.38691 7.1379 3.5355 6.94973C3.56518 6.91808 3.58659 6.8796 3.59783 6.83769C3.60908 6.79579 3.6098 6.75175 3.59995 6.7095C3.54819 6.50008 3.51625 6.28625 3.50453 6.07084C3.47942 5.83396 3.39906 5.6314 3.15966 5.52342C3.06676 5.47265 2.99102 5.39545 2.94202 5.30161C2.7141 4.95194 2.60546 4.53791 2.63231 4.12139C2.63985 3.99751 2.69425 3.9205 2.82065 3.91548C2.97048 3.91046 3.01401 3.82508 3.01401 3.68362C3.00056 3.40293 3.05063 3.12281 3.1605 2.86416C3.23239 2.72339 3.26779 2.56682 3.26345 2.40882C3.24169 1.94928 3.43673 1.62619 3.84019 1.41526C3.96407 1.3508 4.08545 1.28552 4.21435 1.22776C4.51151 1.09216 4.82959 1.06035 5.146 1.01432C5.30253 0.991717 5.43311 0.99925 5.55281 1.10472C5.60291 1.1435 5.6644 1.16469 5.72776 1.16498C5.95293 1.18758 6.14629 1.33658 6.38569 1.32067C6.39322 1.32067 6.40494 1.33323 6.41164 1.34243C6.49534 1.46129 6.62174 1.47636 6.75316 1.48055C6.81173 1.47604 6.87037 1.48829 6.92225 1.51585C6.97412 1.54342 7.01709 1.58517 7.04613 1.63623C7.05958 1.65899 7.07761 1.67869 7.09908 1.69411C7.12055 1.70953 7.14499 1.72032 7.17085 1.7258C7.20387 1.73653 7.23382 1.75507 7.25816 1.77984C7.28249 1.80461 7.30049 1.83488 7.31064 1.86809C7.37258 2.01708 7.45294 2.16022 7.50818 2.31256C7.61229 2.61861 7.64968 2.9434 7.61784 3.2651C7.59102 3.62568 7.51672 3.98115 7.39685 4.32228C7.36142 4.45134 7.33953 4.58375 7.33156 4.71736C7.3245 4.75193 7.32826 4.78783 7.34234 4.82019C7.35642 4.85254 7.38013 4.87977 7.41025 4.89816C7.65383 5.06556 7.67225 5.15931 7.50232 5.40038C7.4003 5.53521 7.32579 5.68879 7.28301 5.85238C7.26692 5.93956 7.22718 6.02064 7.16813 6.08677C7.10909 6.1529 7.033 6.20154 6.94819 6.22737C6.82568 6.2697 6.72294 6.35546 6.65941 6.46843C6.6209 6.53121 6.6142 6.59734 6.68703 6.63584C7.00176 6.79906 7.25623 7.07361 7.5877 7.20168C8.30925 7.47957 9.03665 7.74742 9.77327 7.98096C10.1324 8.09563 10.396 8.27894 10.5601 8.61208C10.8079 9.14841 11.1829 9.61617 11.6525 9.97477C11.785 10.0794 11.91 10.1933 12.0266 10.3154C12.6335 10.9114 13.2504 11.504 13.7535 12.1912C14.4148 13.0936 15.0091 14.0411 15.6067 14.9886C15.8168 15.3234 16.0621 15.6055 16.4086 15.7938C16.5703 15.8713 16.7033 15.9978 16.7887 16.1554Z" fill="#11BBD1"/>
<path d="M13.1909 28.5737C12.5338 28.8859 12.2702 28.2431 12.0425 27.468C11.8408 26.7824 12.1128 25.8475 11.8751 24.3709C11.8684 23.9348 12.2836 23.4862 12.672 23.4393C13.0528 23.4075 13.5517 23.7959 13.5927 24.3659C13.6764 25.6164 14.0456 26.317 14.1201 26.7808C14.1724 27.1393 14.1109 27.5052 13.9442 27.8268C13.7775 28.1485 13.514 28.4097 13.1909 28.5737Z" fill="#11BBD1"/>
<path d="M8.16797 27.4539C8.16797 27.4539 8.38142 28.393 9.30051 28.4432C10.2196 28.4935 11.1822 27.1266 12.1164 26.0251C13.0162 24.9637 13.4197 24.8122 13.4197 24.8122L12.4345 23.6035C11.7364 24.5067 10.9462 24.8591 9.79186 25.286" fill="#11BBD1"/>
<path d="M16.7882 16.1557C16.7041 15.9996 16.5732 15.8738 16.414 15.7958C16.0675 15.6075 15.8222 15.3245 15.6121 14.9906C15.0169 14.043 14.4201 13.0955 13.7588 12.1932C13.2566 11.506 12.6389 10.9134 12.032 10.3174C11.9154 10.1952 11.7904 10.0814 11.6578 9.97673C11.1883 9.61813 10.8133 9.15037 10.5655 8.61403C10.3981 8.27922 10.1377 8.09758 9.77863 7.98291C9.04202 7.74938 8.31461 7.48069 7.59307 7.20363C7.25824 7.07556 7.00712 6.80102 6.69239 6.63779C6.61957 6.60013 6.62626 6.534 6.66477 6.47039C6.7283 6.35742 6.83104 6.27165 6.95355 6.22932C7.03836 6.20349 7.11445 6.15486 7.17349 6.08873C7.23254 6.0226 7.27228 5.94151 7.28838 5.85433C7.32932 5.69024 7.40213 5.53581 7.50266 5.39982C7.67007 5.15708 7.65417 5.05998 7.41059 4.8976C7.38047 4.87921 7.35676 4.85198 7.34268 4.81963C7.3286 4.78728 7.32484 4.75137 7.3319 4.7168C7.33987 4.5832 7.36176 4.45079 7.39719 4.32172C7.5167 3.98082 7.59072 3.62564 7.61734 3.26538C7.64783 2.94611 7.61017 2.624 7.50685 2.32037C7.44993 2.16384 7.36622 2.02071 7.30679 1.87172C7.29665 1.83851 7.27865 1.80824 7.25431 1.78347C7.22998 1.75869 7.20003 1.74016 7.167 1.72942C7.14114 1.72395 7.11671 1.71316 7.09524 1.69774C7.07377 1.68232 7.05573 1.66261 7.04228 1.63986C7.01324 1.5888 6.97028 1.54705 6.9184 1.51948C6.86653 1.49191 6.80788 1.47967 6.74931 1.48417C6.61789 1.48417 6.49233 1.46492 6.40779 1.34606C6.40109 1.33685 6.38937 1.3243 6.38184 1.3243C6.14412 1.3402 5.94908 1.19121 5.72391 1.1728C5.66055 1.1725 5.59906 1.15132 5.54897 1.11253C5.42927 1.00706 5.29785 0.99953 5.14216 1.02213C4.82575 1.069 4.50766 1.09997 4.21051 1.23557C4.0816 1.29333 3.95939 1.35862 3.83634 1.42307C3.43288 1.634 3.23784 1.9571 3.25961 2.41663C3.26395 2.57464 3.22854 2.7312 3.15665 2.87198C3.04904 3.12857 3.00014 3.40597 3.01351 3.6839C3.01351 3.82201 2.97333 3.90739 2.81931 3.91241C2.69292 3.91743 2.63851 3.99611 2.63098 4.11832C2.60412 4.53484 2.71277 4.94887 2.94069 5.29854C2.98798 5.39377 3.06259 5.47274 3.15498 5.52538C3.39437 5.63335 3.47473 5.83592 3.49984 6.0728C3.51304 6.28777 3.54639 6.50104 3.59945 6.70978C3.6115 6.75196 3.61284 6.79648 3.60334 6.8393C3.59384 6.88213 3.5738 6.9219 3.54505 6.95503C3.39645 7.1432 3.28509 7.35796 3.21692 7.58783C3.18427 7.71171 3.07713 7.77198 2.9817 7.83894C2.58326 8.10009 2.18231 8.35957 1.80982 8.65337C1.62734 8.79818 1.45407 8.95387 1.27913 9.10872C1.08911 9.27613 1.0347 9.50882 1.03973 9.74403C1.05898 10.612 0.719969 11.3821 0.405235 12.1597C0.268794 12.4728 0.098871 12.7766 0.0193503 13.1139C-0.0124579 13.2495 0.000935046 13.365 0.131516 13.4487C0.389331 13.6162 0.42951 13.7451 0.298928 14.0296C0.156797 14.3191 0.0640023 14.6303 0.0243727 14.9504C0.0109797 15.0826 0.0101427 15.2174 0.00260915 15.3505C-0.00398819 15.4898 0.0393464 15.627 0.12482 15.7372C0.319855 16.0059 0.361708 16.329 0.416117 16.6437C0.451273 16.8505 0.473037 17.0622 0.499823 17.2673C0.520132 17.4296 0.566486 17.5876 0.6371 17.7352C0.735036 17.9336 0.868129 18.1027 1.11339 18.0792C1.23696 18.0736 1.35628 18.0324 1.45707 17.9607C1.55787 17.889 1.63588 17.7898 1.68175 17.6749C1.69565 17.6225 1.72167 17.574 1.75773 17.5334C1.79379 17.4929 1.83887 17.4614 1.88934 17.4414C1.96345 17.4075 2.02288 17.3481 2.05675 17.274C2.09649 17.1957 2.16484 17.1358 2.2476 17.1066C2.30934 17.0872 2.36293 17.048 2.40003 16.995C2.43713 16.942 2.45564 16.8782 2.45268 16.8136C2.46524 16.6328 2.47361 16.4529 2.48533 16.2729C2.49083 16.2237 2.48218 16.1739 2.46039 16.1294C2.43859 16.0849 2.40456 16.0476 2.36228 16.0218C2.20324 15.9146 2.04503 15.7975 1.89269 15.687C1.82117 15.6442 1.76734 15.5771 1.74093 15.4981C1.71452 15.419 1.71728 15.3331 1.74872 15.2559C1.88097 14.9269 1.85921 14.5796 1.9019 14.2406C1.92533 14.0732 1.93036 13.9208 2.112 13.8162C2.29364 13.7116 2.28694 13.5065 2.27941 13.3257C2.27574 13.067 2.36482 12.8155 2.53053 12.6167C2.60001 12.5247 2.64102 12.5247 2.68204 12.6293C2.75821 12.8218 2.93315 12.9532 3.01686 13.1374C3.23345 13.5964 3.34987 14.0963 3.35838 14.6039C3.3578 14.8952 3.34215 15.1863 3.31151 15.476C3.29225 15.7104 3.26296 15.9414 3.1014 16.1306C2.90051 16.365 2.91641 16.6445 2.94236 16.9249C2.96831 17.1861 2.97752 17.4481 3.01268 17.7076C3.05285 18.0072 2.92395 18.2466 2.75235 18.4609C2.66757 18.5536 2.60587 18.6649 2.57227 18.786C2.53867 18.907 2.53412 19.0342 2.55899 19.1573C2.64688 19.5758 2.74816 19.9944 2.96245 20.3777C3.20185 20.8113 3.26379 21.3052 3.24956 21.8007C3.23366 22.3782 3.09722 22.9432 3.0629 23.5191C3.0629 23.5434 3.05537 23.566 3.05537 23.5894C3.0336 24.3126 2.97166 24.1636 3.48896 24.5378C3.55314 24.578 3.60695 24.6327 3.64607 24.6976C3.68518 24.7624 3.7085 24.8356 3.71413 24.9111C3.72752 25.1086 3.75598 25.3062 3.76017 25.5037C3.77508 25.8587 3.82897 26.211 3.92089 26.5542C3.98542 26.8208 4.0205 27.0936 4.02552 27.3678C4.04477 27.9981 4.27664 28.5731 4.48674 29.1532C4.77395 29.942 5.10625 30.7136 5.482 31.4642C5.53063 31.57 5.57256 31.6788 5.60756 31.7898C5.62161 31.8192 5.62679 31.852 5.62248 31.8843C5.61817 31.9165 5.60455 31.9468 5.58329 31.9715C5.49288 32.0711 5.52134 32.1732 5.57157 32.2787C5.67608 32.485 5.7227 32.7157 5.70649 32.9464C5.69028 33.177 5.61183 33.399 5.47949 33.5886C5.34629 33.809 5.16159 33.9937 4.94126 34.1269C4.84063 34.1874 4.75452 34.2693 4.689 34.3668C4.62348 34.4643 4.58015 34.575 4.56207 34.691C4.51436 34.9287 4.61983 35.0878 4.85421 35.1455L5.00571 35.184H6.30399C6.87163 35.1164 7.42666 34.9679 7.95216 34.7429C8.19407 34.6374 8.1924 34.6324 8.15055 34.3788C8.10995 34.0547 8.10995 33.7269 8.15055 33.4028C8.1666 33.267 8.15531 33.1293 8.11736 32.998C8.07941 32.8666 8.01556 32.7441 7.92956 32.6378C7.74123 32.4 7.57047 32.1498 7.40138 31.8978C7.15026 31.5279 7.07995 31.1052 7.0473 30.6699C6.99457 29.9735 6.93932 29.2771 6.87989 28.5773C6.85178 28.1985 6.75891 27.8274 6.60534 27.48C6.52406 27.2732 6.48837 27.0514 6.5007 26.8296C6.5007 26.2872 6.46638 25.7465 6.43458 25.2057C6.40786 24.7692 6.42947 24.331 6.49903 23.8991C6.53084 23.7016 6.62542 23.5492 6.83971 23.504C6.92342 23.4865 6.99624 23.4965 6.99038 23.5919C6.97532 23.8179 7.07995 23.9987 7.16533 24.1963C7.28503 24.4742 7.30847 24.7822 7.34613 25.0844C7.40054 25.5029 7.4357 25.9264 7.62655 26.3048C7.75489 26.5698 7.86345 26.844 7.95133 27.1251C7.99029 27.2536 8.06523 27.3683 8.16729 27.4557C8.16729 27.4557 8.38074 28.3948 9.29983 28.4451C10.172 28.4928 11.0844 27.2623 11.9784 26.1951C11.9642 26.7082 11.9449 27.12 12.0471 27.4674C12.2747 28.2425 12.5384 28.8853 13.1955 28.5731C13.5172 28.4093 13.7796 28.1489 13.946 27.8284C14.1123 27.5079 14.1742 27.1435 14.123 26.7861C14.0485 26.3223 13.681 25.6217 13.5956 24.3712C13.5563 23.8012 13.0574 23.4128 12.6749 23.4446C12.3451 23.484 11.996 23.8146 11.9031 24.1804C11.6431 24.4072 11.3564 24.6015 11.0493 24.7588C11.1029 24.5671 11.1581 24.3754 11.2025 24.1812C11.3423 23.5836 11.3423 22.9675 11.4126 22.3607C11.4294 22.1106 11.472 21.8629 11.5398 21.6215C11.6151 21.3939 11.5716 21.167 11.5113 20.9519C11.3841 20.5083 11.4025 20.0496 11.3841 19.5968C11.3799 19.4804 11.3841 19.3632 11.3841 19.2469C11.3841 18.856 11.3841 18.856 11.7767 18.7857C12.1693 18.7154 12.1274 18.7246 11.9751 18.3948C11.8 18.0264 11.598 17.6713 11.3707 17.3326C11.1413 16.9788 11.0246 16.5638 11.0359 16.1423C11.0359 15.7112 11.0284 15.2793 11.0309 14.8483C11.0322 14.714 10.9996 14.5816 10.9363 14.4632C10.7792 14.1703 10.6395 13.8685 10.5178 13.5592C10.4409 13.3828 10.3299 13.2232 10.1913 13.0897C9.83639 12.713 9.75938 12.2777 9.94018 11.7956C10.0239 11.5579 10.1135 11.5294 10.3068 11.691C10.5797 11.9178 10.8484 12.1513 11.1104 12.3916C11.2778 12.5464 11.4636 12.6142 11.6855 12.5439C11.8344 12.4979 11.9324 12.5439 12.0337 12.6644C12.4567 13.1458 12.8466 13.6553 13.2005 14.1895C13.4383 14.557 13.7563 14.8591 14.0242 15.2074C14.3398 15.6125 14.5264 16.0829 14.7491 16.5382C14.8681 16.7985 15.0212 17.0417 15.2044 17.2614C15.4681 17.567 15.7544 17.6239 16.106 17.4238C16.3922 17.2614 16.6551 17.0287 16.7555 16.8287C16.856 16.6286 16.8878 16.329 16.7882 16.1557Z" fill="#11BBD1"/>
<path d="M47.204 8.35863L46.3829 0H46.3519H46.3444L37.5452 0.968449L37.5695 0.977656C37.5402 1.23379 36.7324 8.15439 35.0257 13.1749L34.9746 13.2335L35.0123 13.2151C35.0123 13.221 35.0123 13.2277 35.0056 13.2344C40.3904 10.5592 47.204 8.35863 47.204 8.35863ZM37.8708 1.27313L38.2132 1.23546C39.2302 1.6657 41.235 2.60067 42.9844 3.9508L46.0271 0.379177L46.0824 0.373317L46.8165 7.83883C45.729 6.3674 44.4376 5.05826 42.9811 3.9508L35.5907 12.5195C36.9718 8.08827 37.7126 2.54207 37.8708 1.27313Z" fill="#11BBD1"/>
</g>
<defs>
<clipPath id="clip0_90_7692">
<rect width="103" height="36" fill="white"/>
</clipPath>
</defs>
</svg>
