<svg width="60" height="48" viewBox="0 0 60 48" fill="none" xmlns="http://www.w3.org/2000/svg">
<path d="M0 48V32.2222C0 26.1481 0.97015 20.5185 2.91045 15.3333C5 10.1481 8.50746 5.03703 13.4328 0L22.1642 6.44444C18.8806 10 16.4925 13.3333 15 16.4444C13.5075 19.4074 12.6119 22.3704 12.3134 25.3333H22.8358V48H0ZM37.1642 48V32.2222C37.1642 26.1481 38.1343 20.5185 40.0746 15.3333C42.1642 10.1481 45.6716 5.03703 50.597 0L59.3284 6.44444C56.0448 10 53.6567 13.3333 52.1642 16.4444C50.6716 19.4074 49.7761 22.3704 49.4776 25.3333H60V48H37.1642Z" fill="#F8F9FB"/>
</svg>
