<svg width="22" height="24" viewBox="0 0 22 24" fill="none" xmlns="http://www.w3.org/2000/svg">
<path d="M6.83207 18.1406L7.27649 17.5364L6.83207 18.1406ZM5.84881 17.145L6.45816 16.7078L5.84881 17.145ZM20.1512 17.145L19.5418 16.7078L20.1512 17.145ZM19.1679 18.1406L18.7235 17.5364L19.1679 18.1406ZM19.1679 1.85942L18.7235 2.46357L19.1679 1.85942ZM20.1512 2.85497L19.5418 3.29222L20.1512 2.85497ZM6.83207 1.85942L7.27649 2.46357L6.83207 1.85942ZM5.84881 2.85497L6.45816 3.29222L5.84881 2.85497ZM20.25 9.1V10.9H21.75V9.1H20.25ZM5.75 10.9V9.1H4.25V10.9H5.75ZM13 18.25C11.3165 18.25 10.1149 18.2489 9.18601 18.147C8.27168 18.0467 7.7111 17.8561 7.27649 17.5364L6.38764 18.7447C7.12132 19.2844 7.97816 19.5235 9.02245 19.6381C10.0521 19.7511 11.3504 19.75 13 19.75V18.25ZM4.25 10.9C4.25 12.5709 4.249 13.8835 4.36036 14.9243C4.47317 15.9785 4.70831 16.8421 5.23946 17.5823L6.45816 16.7078C6.14051 16.2651 5.95124 15.6936 5.85184 14.7647C5.751 13.8223 5.75 12.6039 5.75 10.9H4.25ZM7.27649 17.5364C6.96282 17.3057 6.6866 17.0261 6.45816 16.7078L5.23946 17.5823C5.55929 18.028 5.94669 18.4203 6.38764 18.7447L7.27649 17.5364ZM20.25 10.9C20.25 12.6039 20.249 13.8223 20.1482 14.7647C20.0488 15.6936 19.8595 16.2651 19.5418 16.7078L20.7605 17.5823C21.2917 16.8421 21.5268 15.9785 21.6396 14.9243C21.751 13.8835 21.75 12.5709 21.75 10.9H20.25ZM13 19.75C14.6496 19.75 15.9479 19.7511 16.9776 19.6381C18.0218 19.5235 18.8787 19.2844 19.6124 18.7447L18.7235 17.5364C18.2889 17.8561 17.7283 18.0467 16.814 18.147C15.8851 18.2489 14.6835 18.25 13 18.25V19.75ZM19.5418 16.7078C19.3134 17.0261 19.0372 17.3057 18.7235 17.5364L19.6124 18.7447C20.0533 18.4203 20.4407 18.028 20.7605 17.5823L19.5418 16.7078ZM13 1.75C14.6835 1.75 15.8851 1.75106 16.814 1.85296C17.7283 1.95326 18.2889 2.14385 18.7235 2.46357L19.6124 1.25528C18.8787 0.715571 18.0218 0.476456 16.9776 0.3619C15.9479 0.248945 14.6496 0.25 13 0.25V1.75ZM21.75 9.1C21.75 7.42912 21.751 6.11646 21.6396 5.07574C21.5268 4.02152 21.2917 3.15792 20.7605 2.41771L19.5418 3.29222C19.8595 3.7349 20.0488 4.30645 20.1482 5.23533C20.249 6.17771 20.25 7.39612 20.25 9.1H21.75ZM18.7235 2.46357C19.0372 2.69431 19.3134 2.97388 19.5418 3.29222L20.7605 2.41771C20.4407 1.972 20.0533 1.57965 19.6124 1.25528L18.7235 2.46357ZM13 0.25C11.3504 0.25 10.0521 0.248945 9.02245 0.3619C7.97816 0.476456 7.12132 0.715571 6.38764 1.25528L7.27649 2.46357C7.7111 2.14385 8.27168 1.95326 9.18601 1.85296C10.1149 1.75106 11.3165 1.75 13 1.75V0.25ZM5.75 9.1C5.75 7.39612 5.751 6.17771 5.85184 5.23533C5.95124 4.30645 6.14051 3.7349 6.45816 3.29222L5.23946 2.41771C4.70831 3.15792 4.47317 4.02152 4.36036 5.07574C4.249 6.11646 4.25 7.42912 4.25 9.1H5.75ZM6.38764 1.25528C5.94669 1.57965 5.55929 1.972 5.23946 2.41771L6.45816 3.29222C6.6866 2.97388 6.96282 2.69431 7.27649 2.46357L6.38764 1.25528Z" fill="#6E6E6E"/>
<path d="M1 13.1C1 9.72524 1 8.03786 1.84881 6.85497C2.12294 6.47294 2.45476 6.13698 2.83207 5.85942C4.00036 5 5.6669 5 9 5C12.3331 5 13.9996 5 15.1679 5.85942C15.5452 6.13698 15.8771 6.47294 16.1512 6.85497C17 8.03786 17 9.72524 17 13.1V14.9C17 18.2748 17 19.9621 16.1512 21.145C15.8771 21.5271 15.5452 21.863 15.1679 22.1406C13.9996 23 12.3331 23 9 23C5.6669 23 4.00036 23 2.83207 22.1406C2.45476 21.863 2.12294 21.5271 1.84881 21.145C1 19.9621 1 18.2748 1 14.9V13.1Z" fill="white"/>
<path d="M2.83207 22.1406L3.27649 21.5364L2.83207 22.1406ZM1.84881 21.145L2.45816 20.7078L1.84881 21.145ZM16.1512 21.145L15.5418 20.7078L16.1512 21.145ZM15.1679 22.1406L14.7235 21.5364L15.1679 22.1406ZM15.1679 5.85942L14.7235 6.46357L15.1679 5.85942ZM16.1512 6.85497L15.5418 7.29222L16.1512 6.85497ZM2.83207 5.85942L3.27649 6.46357L2.83207 5.85942ZM1.84881 6.85497L2.45816 7.29222L1.84881 6.85497ZM16.25 13.1V14.9H17.75V13.1H16.25ZM1.75 14.9V13.1H0.25V14.9H1.75ZM9 22.25C7.31654 22.25 6.11494 22.2489 5.18601 22.147C4.27168 22.0467 3.7111 21.8561 3.27649 21.5364L2.38764 22.7447C3.12132 23.2844 3.97816 23.5235 5.02245 23.6381C6.05215 23.7511 7.35036 23.75 9 23.75V22.25ZM0.25 14.9C0.25 16.5709 0.248995 17.8835 0.360359 18.9243C0.473166 19.9785 0.708306 20.8421 1.23946 21.5823L2.45816 20.7078C2.14051 20.2651 1.95124 19.6936 1.85184 18.7647C1.751 17.8223 1.75 16.6039 1.75 14.9H0.25ZM3.27649 21.5364C2.96282 21.3057 2.6866 21.0261 2.45816 20.7078L1.23946 21.5823C1.55929 22.028 1.94669 22.4203 2.38764 22.7447L3.27649 21.5364ZM16.25 14.9C16.25 16.6039 16.249 17.8223 16.1482 18.7647C16.0488 19.6936 15.8595 20.2651 15.5418 20.7078L16.7605 21.5823C17.2917 20.8421 17.5268 19.9785 17.6396 18.9243C17.751 17.8835 17.75 16.5709 17.75 14.9H16.25ZM9 23.75C10.6496 23.75 11.9479 23.7511 12.9776 23.6381C14.0218 23.5235 14.8787 23.2844 15.6124 22.7447L14.7235 21.5364C14.2889 21.8561 13.7283 22.0467 12.814 22.147C11.8851 22.2489 10.6835 22.25 9 22.25V23.75ZM15.5418 20.7078C15.3134 21.0261 15.0372 21.3057 14.7235 21.5364L15.6124 22.7447C16.0533 22.4203 16.4407 22.028 16.7605 21.5823L15.5418 20.7078ZM9 5.75C10.6835 5.75 11.8851 5.75106 12.814 5.85296C13.7283 5.95326 14.2889 6.14385 14.7235 6.46357L15.6124 5.25528C14.8787 4.71557 14.0218 4.47646 12.9776 4.3619C11.9479 4.24894 10.6496 4.25 9 4.25V5.75ZM17.75 13.1C17.75 11.4291 17.751 10.1165 17.6396 9.07574C17.5268 8.02152 17.2917 7.15792 16.7605 6.41771L15.5418 7.29222C15.8595 7.7349 16.0488 8.30645 16.1482 9.23533C16.249 10.1777 16.25 11.3961 16.25 13.1H17.75ZM14.7235 6.46357C15.0372 6.69431 15.3134 6.97388 15.5418 7.29222L16.7605 6.41771C16.4407 5.972 16.0533 5.57965 15.6124 5.25528L14.7235 6.46357ZM9 4.25C7.35036 4.25 6.05215 4.24894 5.02245 4.3619C3.97816 4.47646 3.12132 4.71557 2.38764 5.25528L3.27649 6.46357C3.7111 6.14385 4.27168 5.95326 5.18601 5.85296C6.11494 5.75106 7.31654 5.75 9 5.75V4.25ZM1.75 13.1C1.75 11.3961 1.751 10.1777 1.85184 9.23533C1.95124 8.30645 2.14051 7.7349 2.45816 7.29222L1.23946 6.41771C0.708306 7.15792 0.473166 8.02152 0.360359 9.07574C0.248995 10.1165 0.25 11.4291 0.25 13.1H1.75ZM2.38764 5.25528C1.94669 5.57965 1.55929 5.972 1.23946 6.41771L2.45816 7.29222C2.6866 6.97388 2.96282 6.69431 3.27649 6.46357L2.38764 5.25528Z" fill="#6E6E6E"/>
</svg>
