<svg width="22" height="19" viewBox="0 0 22 19" fill="none" xmlns="http://www.w3.org/2000/svg">
<path d="M11 11.75C10.5858 11.75 10.25 12.0858 10.25 12.5C10.25 12.9142 10.5858 13.25 11 13.25V11.75ZM14.75 9.5C14.75 9.08579 14.4142 8.75 14 8.75C13.5858 8.75 13.25 9.08579 13.25 9.5H14.75ZM2.22067 7.6254L1.61141 7.18801L2.22067 7.6254ZM2.22045 11.3743L2.82971 10.9369L2.82971 10.9369L2.22045 11.3743ZM4.78797 14.3928L5.35092 13.8972L5.33191 13.8756L5.3113 13.8556L4.78797 14.3928ZM17.101 4.5L16.5824 5.04174L16.6037 5.06213L16.6265 5.08079L17.101 4.5ZM1.33692 9.49998L0.586916 9.49997L1.33692 9.49998ZM19.7793 11.3746L20.3886 11.812V11.812L19.7793 11.3746ZM19.7793 7.62532L19.17 8.06271L19.17 8.06271L19.7793 7.62532ZM19.3953 5.89076C19.1332 5.57003 18.6607 5.52252 18.34 5.78464C18.0193 6.04676 17.9718 6.51925 18.2339 6.83998L19.3953 5.89076ZM6.93753 15.2322C6.60111 14.9905 6.13249 15.0674 5.89085 15.4038C5.64921 15.7402 5.72604 16.2088 6.06247 16.4505L6.93753 15.2322ZM20.6631 9.49999L19.9131 9.5L20.6631 9.49999ZM0.531479 16.9143C0.208032 17.1731 0.155591 17.6451 0.414348 17.9685C0.673106 18.292 1.14507 18.3444 1.46852 18.0857L0.531479 16.9143ZM21.4685 2.08565C21.792 1.82689 21.8444 1.35493 21.5857 1.03148C21.3269 0.708032 20.8549 0.655591 20.5315 0.914348L21.4685 2.08565ZM17.1747 4.56021L17.6433 5.14586L17.1747 4.56021ZM4.82765 14.4379L5.29617 15.0235L4.82765 14.4379ZM11 5.75C8.92893 5.75 7.25 7.42893 7.25 9.5H8.75C8.75 8.25736 9.75736 7.25 11 7.25V5.75ZM7.25 9.5C7.25 10.3808 7.5546 11.1925 8.06365 11.8326L9.23767 10.899C8.93209 10.5148 8.75 10.0297 8.75 9.5H7.25ZM13.9274 7.15611C13.2414 6.30021 12.1847 5.75 11 5.75V7.25C11.7103 7.25 12.3434 7.57824 12.7569 8.09423L13.9274 7.15611ZM11 13.25C13.0711 13.25 14.75 11.5711 14.75 9.5H13.25C13.25 10.7426 12.2426 11.75 11 11.75V13.25ZM11 0.75C8.85904 0.75 6.92324 1.80899 5.35173 3.09572C3.77163 4.38946 2.47961 5.97865 1.61141 7.18801L2.82992 8.06279C3.65919 6.90765 4.86348 5.43414 6.302 4.25631C7.7491 3.07146 9.35423 2.25 11 2.25V0.75ZM1.61118 11.8117C2.27304 12.7336 3.17749 13.871 4.26464 14.9301L5.3113 13.8556C4.30603 12.8763 3.45829 11.8125 2.82971 10.9369L1.61118 11.8117ZM17.6197 3.95826C15.8873 2.29958 13.5908 0.75 11 0.75V2.25C13.0028 2.25 14.9382 3.46762 16.5824 5.04174L17.6197 3.95826ZM1.61141 7.18801C1.05704 7.96023 0.586923 8.57137 0.586916 9.49997L2.08692 9.49998C2.08692 9.14146 2.20597 8.93192 2.82992 8.06279L1.61141 7.18801ZM2.82971 10.9369C2.20592 10.068 2.08691 9.85851 2.08692 9.49998L0.586916 9.49997C0.586909 10.4286 1.05693 11.0396 1.61119 11.8117L2.82971 10.9369ZM11 18.25C13.141 18.25 15.0768 17.191 16.6483 15.9043C18.2284 14.6105 19.5204 13.0214 20.3886 11.812L19.1701 10.9372C18.3408 12.0923 17.1365 13.5659 15.698 14.7437C14.2509 15.9285 12.6458 16.75 11 16.75V18.25ZM20.3885 7.18793C20.1009 6.78722 19.7682 6.34694 19.3953 5.89076L18.2339 6.83998C18.5844 7.26885 18.8981 7.68393 19.17 8.06271L20.3885 7.18793ZM6.06247 16.4505C7.487 17.4737 9.16759 18.25 11 18.25V16.75C9.59519 16.75 8.21818 16.152 6.93753 15.2322L6.06247 16.4505ZM20.3886 11.812C20.943 11.0398 21.4131 10.4286 21.4131 9.49999L19.9131 9.5C19.9131 9.85852 19.794 10.0681 19.1701 10.9372L20.3886 11.812ZM19.17 8.06271C19.794 8.93191 19.9131 9.14147 19.9131 9.5L21.4131 9.49999C21.4131 8.57138 20.9429 7.9602 20.3885 7.18793L19.17 8.06271ZM17.6433 5.14586L21.4685 2.08565L20.5315 0.914348L16.7062 3.97456L17.6433 5.14586ZM16.6265 5.08079L16.7002 5.14101L17.6493 3.97942L17.5756 3.91921L16.6265 5.08079ZM1.46852 18.0857L5.29617 15.0235L4.35913 13.8522L0.531479 16.9143L1.46852 18.0857ZM5.29617 15.0235L17.6433 5.14586L16.7062 3.97456L4.35913 13.8522L5.29617 15.0235ZM4.22503 14.8884L4.2647 14.9335L5.39059 13.9423L5.35092 13.8972L4.22503 14.8884Z" fill="#6E6E6E"/>
</svg>
