<svg width="25" height="24" viewBox="0 0 25 24" fill="none" xmlns="http://www.w3.org/2000/svg">
<path d="M17.5003 6C17.5003 3.23858 15.2617 1 12.5003 1C9.73884 1 7.50027 3.23858 7.50027 6M17.5003 6H18.809C20.8947 6 21.9375 6 22.5338 6.66616C23.13 7.33231 23.0148 8.36879 22.7845 10.4417L22.4887 13.1043C22.0185 17.3356 21.7835 19.4513 20.3597 20.7256C18.9359 22 16.7907 22 12.5003 22C8.20987 22 6.06467 22 4.64087 20.7256C3.21707 19.4513 2.982 17.3356 2.51186 13.1043L2.21601 10.4417C1.98569 8.36879 1.87052 7.33231 2.46676 6.66616C3.063 6 4.10585 6 6.19155 6H7.50027M17.5003 6H7.50027M18.5003 10H6.50027" stroke="#6E6E6E" stroke-width="1.5" stroke-linecap="round"/>
</svg>
