<svg width="25" height="24" viewBox="0 0 25 24" fill="none" xmlns="http://www.w3.org/2000/svg">
<path d="M9.5 20.5L12.1727 15.7714C12.3024 15.5419 12.4163 15.3404 12.5182 15.1622M12.5182 15.1622C12.8341 14.6097 13.035 14.2806 13.2358 14.0336C14.8978 11.9885 17.8618 11.5845 20.0106 13.1101C20.3516 13.3522 20.7309 13.7309 21.485 14.485M12.5182 15.1622L12 15C10.8045 14.7609 10.2067 14.6413 9.65808 14.653C8.18985 14.6842 6.80956 15.3593 5.88354 16.4991C5.53751 16.925 5.26489 17.4702 4.71965 18.5607L4.60982 18.7804L4.48875 18.9849M21.485 14.485C21.5 13.7605 21.5 12.939 21.5 12C21.5 8.25027 21.5 6.3754 20.5451 5.06107C20.2367 4.6366 19.8634 4.26331 19.4389 3.95491C18.1246 3 16.2497 3 12.5 3C8.75027 3 6.8754 3 5.56107 3.95491C5.1366 4.26331 4.76331 4.6366 4.45491 5.06107C3.5 6.3754 3.5 8.25027 3.5 12C3.5 15.7497 3.5 17.6246 4.45491 18.9389C4.46611 18.9543 4.47738 18.9697 4.48875 18.9849M21.485 14.485C21.4401 16.6536 21.2609 17.9537 20.5451 18.9389C20.2367 19.3634 19.8634 19.7367 19.4389 20.0451C18.1246 21 16.2497 21 12.5 21C8.75027 21 6.8754 21 5.56107 20.0451C5.152 19.7479 4.79047 19.3904 4.48875 18.9849M9.5 9C9.5 10.1046 10.3954 11 11.5 11C12.6046 11 13.5 10.1046 13.5 9C13.5 7.89543 12.6046 7 11.5 7C10.3954 7 9.5 7.89543 9.5 9Z" stroke="#6E6E6E" stroke-width="1.5" stroke-linecap="round"/>
</svg>
