<svg width="11" height="20" viewBox="0 0 11 20" fill="none" xmlns="http://www.w3.org/2000/svg">
    <path fill-rule="evenodd" clip-rule="evenodd" d="M10.5309 0.469364C10.6007 0.539033 10.6561 0.621796 10.6939 0.712914C10.7318 0.804031 10.7512 0.901713 10.7512 1.00036C10.7512 1.09902 10.7318 1.1967 10.6939 1.28781C10.6561 1.37893 10.6007 1.4617 10.5309 1.53136L2.06038 10.0004L10.5309 18.4694C10.6717 18.6102 10.7508 18.8012 10.7508 19.0004C10.7508 19.1995 10.6717 19.3905 10.5309 19.5314C10.39 19.6722 10.199 19.7513 9.99988 19.7513C9.80071 19.7513 9.60971 19.6722 9.46888 19.5314L0.468875 10.5314C0.399031 10.4617 0.343616 10.3789 0.305806 10.2878C0.267997 10.1967 0.248535 10.099 0.248535 10.0004C0.248535 9.90171 0.267997 9.80403 0.305806 9.71291C0.343616 9.6218 0.399031 9.53903 0.468875 9.46936L9.46888 0.469364C9.53854 0.399519 9.62131 0.344105 9.71243 0.306295C9.80354 0.268486 9.90123 0.249023 9.99988 0.249023C10.0985 0.249023 10.1962 0.268486 10.2873 0.306295C10.3784 0.344105 10.4612 0.399519 10.5309 0.469364Z" fill="#212529" />
  </svg>