<svg width="18" height="10" viewBox="0 0 18 10" fill="none" xmlns="http://www.w3.org/2000/svg">
<path fill-rule="evenodd" clip-rule="evenodd" d="M8.55707 0.80764C8.61513 0.749436 8.6841 0.703258 8.76003 0.671749C8.83596 0.640241 8.91736 0.624023 8.99957 0.624023C9.08178 0.624023 9.16318 0.640241 9.23911 0.671749C9.31504 0.703258 9.38401 0.749436 9.44207 0.80764L16.9421 8.30764C17.0594 8.425 17.1254 8.58417 17.1254 8.75014C17.1254 8.91611 17.0594 9.07528 16.9421 9.19264C16.8247 9.31 16.6655 9.37593 16.4996 9.37593C16.3336 9.37593 16.1744 9.31 16.0571 9.19264L8.99957 2.13389L1.94207 9.19264C1.82471 9.31 1.66554 9.37593 1.49957 9.37593C1.3336 9.37593 1.17443 9.31 1.05707 9.19264C0.939711 9.07528 0.873779 8.91611 0.873779 8.75014C0.873779 8.58417 0.939711 8.425 1.05707 8.30764L8.55707 0.80764V0.80764Z" fill="#ADB5BD"/>
</svg>
