<svg width="16" height="17" viewBox="0 0 16 17" fill="none" xmlns="http://www.w3.org/2000/svg">
<g clip-path="url(#clip0_7488_303)">
<path fill-rule="evenodd" clip-rule="evenodd" d="M14.763 0.131523C14.8354 0.176317 14.8952 0.238869 14.9367 0.313246C14.9782 0.387624 15 0.471363 15 0.556523V15.5565C15 15.6891 14.9473 15.8163 14.8536 15.9101C14.7598 16.0038 14.6326 16.0565 14.5 16.0565H11.5C11.3674 16.0565 11.2402 16.0038 11.1464 15.9101C11.0527 15.8163 11 15.6891 11 15.5565V14.0565H10V15.5565C10 15.6891 9.94732 15.8163 9.85355 15.9101C9.75979 16.0038 9.63261 16.0565 9.5 16.0565H0.5C0.367392 16.0565 0.240215 16.0038 0.146447 15.9101C0.0526784 15.8163 0 15.6891 0 15.5565V10.0565C7.96467e-05 9.95162 0.0331481 9.84941 0.0945249 9.76434C0.155902 9.67928 0.242478 9.61567 0.342 9.58252L6 7.69652V4.55652C6 4.46374 6.02582 4.3728 6.07456 4.29385C6.12331 4.21491 6.19305 4.15109 6.276 4.10952L14.276 0.109523C14.3523 0.0713289 14.4371 0.0532992 14.5224 0.0571501C14.6076 0.061001 14.6904 0.0866043 14.763 0.131523ZM6 8.75052L1 10.4165V15.0565H6V8.75052ZM7 15.0565H9V13.5565C9 13.4239 9.05268 13.2967 9.14645 13.203C9.24021 13.1092 9.36739 13.0565 9.5 13.0565H11.5C11.6326 13.0565 11.7598 13.1092 11.8536 13.203C11.9473 13.2967 12 13.4239 12 13.5565V15.0565H14V1.36552L7 4.86552V15.0565Z" fill="#A5B4FC"/>
<path d="M2 11.0547H3V12.0547H2V11.0547ZM4 11.0547H5V12.0547H4V11.0547ZM2 13.0547H3V14.0547H2V13.0547ZM4 13.0547H5V14.0547H4V13.0547ZM8 9.05469H9V10.0547H8V9.05469ZM10 9.05469H11V10.0547H10V9.05469ZM8 11.0547H9V12.0547H8V11.0547ZM10 11.0547H11V12.0547H10V11.0547ZM12 9.05469H13V10.0547H12V9.05469ZM12 11.0547H13V12.0547H12V11.0547ZM8 7.05469H9V8.05469H8V7.05469ZM10 7.05469H11V8.05469H10V7.05469ZM12 7.05469H13V8.05469H12V7.05469ZM8 5.05469H9V6.05469H8V5.05469ZM10 5.05469H11V6.05469H10V5.05469ZM12 5.05469H13V6.05469H12V5.05469ZM12 3.05469H13V4.05469H12V3.05469Z" fill="#A5B4FC"/>
</g>
<defs>
<clipPath id="clip0_7488_303">
<rect width="16" height="16" fill="white" transform="translate(0 0.0546875)"/>
</clipPath>
</defs>
</svg>
