<svg width="16" height="14" viewBox="0 0 16 14" fill="none" xmlns="http://www.w3.org/2000/svg">
<path fill-rule="evenodd" clip-rule="evenodd" d="M3.99962 12.0547C4.26484 12.0547 4.51919 11.9493 4.70673 11.7618C4.89426 11.5743 4.99962 11.3199 4.99962 11.0547C4.99962 10.7895 4.89426 10.5351 4.70673 10.3476C4.51919 10.16 4.26484 10.0547 3.99962 10.0547C3.7344 10.0547 3.48005 10.16 3.29251 10.3476C3.10498 10.5351 2.99962 10.7895 2.99962 11.0547C2.99962 11.3199 3.10498 11.5743 3.29251 11.7618C3.48005 11.9493 3.7344 12.0547 3.99962 12.0547V12.0547ZM3.99962 13.0547C4.53005 13.0547 5.03876 12.844 5.41383 12.4689C5.78891 12.0938 5.99962 11.5851 5.99962 11.0547C5.99962 10.5243 5.78891 10.0155 5.41383 9.64047C5.03876 9.2654 4.53005 9.05469 3.99962 9.05469C3.46919 9.05469 2.96048 9.2654 2.58541 9.64047C2.21033 10.0155 1.99962 10.5243 1.99962 11.0547C1.99962 11.5851 2.21033 12.0938 2.58541 12.4689C2.96048 12.844 3.46919 13.0547 3.99962 13.0547V13.0547ZM11.9996 12.0547C12.2648 12.0547 12.5192 11.9493 12.7067 11.7618C12.8943 11.5743 12.9996 11.3199 12.9996 11.0547C12.9996 10.7895 12.8943 10.5351 12.7067 10.3476C12.5192 10.16 12.2648 10.0547 11.9996 10.0547C11.7344 10.0547 11.48 10.16 11.2925 10.3476C11.105 10.5351 10.9996 10.7895 10.9996 11.0547C10.9996 11.3199 11.105 11.5743 11.2925 11.7618C11.48 11.9493 11.7344 12.0547 11.9996 12.0547V12.0547ZM11.9996 13.0547C12.5301 13.0547 13.0388 12.844 13.4138 12.4689C13.7889 12.0938 13.9996 11.5851 13.9996 11.0547C13.9996 10.5243 13.7889 10.0155 13.4138 9.64047C13.0388 9.2654 12.5301 9.05469 11.9996 9.05469C11.4692 9.05469 10.9605 9.2654 10.5854 9.64047C10.2103 10.0155 9.99962 10.5243 9.99962 11.0547C9.99962 11.5851 10.2103 12.0938 10.5854 12.4689C10.9605 12.844 11.4692 13.0547 11.9996 13.0547ZM0.114619 0.234688C0.161631 0.178247 0.2205 0.132857 0.287042 0.101746C0.353584 0.0706357 0.426164 0.0545689 0.499619 0.0546882H15.4996C15.573 0.0547562 15.6455 0.0709908 15.712 0.102239C15.7784 0.133487 15.8371 0.178982 15.884 0.235492C15.9309 0.292001 15.9647 0.358139 15.9832 0.429206C16.0016 0.500273 16.0041 0.574525 15.9906 0.646688L14.4906 8.64669C14.4692 8.76127 14.4084 8.86475 14.3187 8.93925C14.2291 9.01375 14.1162 9.05458 13.9996 9.05469H1.99962C1.88305 9.05458 1.77018 9.01375 1.68053 8.93925C1.59087 8.86475 1.53007 8.76127 1.50862 8.64669L0.00861913 0.646688C-0.00494207 0.5746 -0.00247583 0.500411 0.015843 0.429382C0.0341618 0.358353 0.0678844 0.292226 0.114619 0.235688V0.234688ZM1.10162 1.05469L2.41462 8.05469H13.5846L14.8976 1.05469H1.10162Z" fill="#A5B4FC"/>
</svg>
