<svg width="16" height="17" viewBox="0 0 16 17" fill="none" xmlns="http://www.w3.org/2000/svg">
<g clip-path="url(#clip0_7515_12559)">
<path fill-rule="evenodd" clip-rule="evenodd" d="M15 4.05469H1V12.0547H15V4.05469ZM1 3.05469C0.734784 3.05469 0.48043 3.16004 0.292893 3.34758C0.105357 3.53512 0 3.78947 0 4.05469L0 12.0547C0 12.3199 0.105357 12.5743 0.292893 12.7618C0.48043 12.9493 0.734784 13.0547 1 13.0547H15C15.2652 13.0547 15.5196 12.9493 15.7071 12.7618C15.8946 12.5743 16 12.3199 16 12.0547V4.05469C16 3.78947 15.8946 3.53512 15.7071 3.34758C15.5196 3.16004 15.2652 3.05469 15 3.05469H1Z" fill="#A5B4FC"/>
<path d="M13 4.05469C13 4.58512 13.2107 5.09383 13.5858 5.4689C13.9609 5.84397 14.4696 6.05469 15 6.05469V4.05469H13ZM3 4.05469C3 4.58512 2.78929 5.09383 2.41421 5.4689C2.03914 5.84397 1.53043 6.05469 1 6.05469V4.05469H3ZM13 12.0547C13 11.5243 13.2107 11.0155 13.5858 10.6405C13.9609 10.2654 14.4696 10.0547 15 10.0547V12.0547H13ZM3 12.0547C3 11.5243 2.78929 11.0155 2.41421 10.6405C2.03914 10.2654 1.53043 10.0547 1 10.0547V12.0547H3ZM10 8.05469C10 8.58512 9.78929 9.09383 9.41421 9.4689C9.03914 9.84397 8.53043 10.0547 8 10.0547C7.46957 10.0547 6.96086 9.84397 6.58579 9.4689C6.21071 9.09383 6 8.58512 6 8.05469C6 7.52425 6.21071 7.01555 6.58579 6.64047C6.96086 6.2654 7.46957 6.05469 8 6.05469C8.53043 6.05469 9.03914 6.2654 9.41421 6.64047C9.78929 7.01555 10 7.52425 10 8.05469V8.05469Z" fill="#A5B4FC"/>
</g>
<defs>
<clipPath id="clip0_7515_12559">
<rect width="16" height="16" fill="white" transform="translate(0 0.0546875)"/>
</clipPath>
</defs>
</svg>
