<svg width="16" height="17" viewBox="0 0 16 17" fill="none" xmlns="http://www.w3.org/2000/svg">
<g clip-path="url(#clip0_7515_12539)">
<path fill-rule="evenodd" clip-rule="evenodd" d="M14 1.05469H2C1.73478 1.05469 1.48043 1.16004 1.29289 1.34758C1.10536 1.53512 1 1.78947 1 2.05469V10.0547C1 10.3199 1.10536 10.5743 1.29289 10.7618C1.48043 10.9493 1.73478 11.0547 2 11.0547H4.5C4.81049 11.0547 5.11672 11.127 5.39443 11.2658C5.67214 11.4047 5.91371 11.6063 6.1 11.8547L8 14.3877L9.9 11.8547C10.0863 11.6063 10.3279 11.4047 10.6056 11.2658C10.8833 11.127 11.1895 11.0547 11.5 11.0547H14C14.2652 11.0547 14.5196 10.9493 14.7071 10.7618C14.8946 10.5743 15 10.3199 15 10.0547V2.05469C15 1.78947 14.8946 1.53512 14.7071 1.34758C14.5196 1.16004 14.2652 1.05469 14 1.05469ZM2 0.0546875C1.46957 0.0546875 0.960859 0.265401 0.585786 0.640474C0.210714 1.01555 0 1.52425 0 2.05469L0 10.0547C0 10.5851 0.210714 11.0938 0.585786 11.4689C0.960859 11.844 1.46957 12.0547 2 12.0547H4.5C4.65525 12.0547 4.80836 12.0908 4.94721 12.1603C5.08607 12.2297 5.20685 12.3305 5.3 12.4547L7.2 14.9877C7.29315 15.1119 7.41393 15.2127 7.55279 15.2821C7.69164 15.3515 7.84475 15.3877 8 15.3877C8.15525 15.3877 8.30836 15.3515 8.44721 15.2821C8.58607 15.2127 8.70685 15.1119 8.8 14.9877L10.7 12.4547C10.7931 12.3305 10.9139 12.2297 11.0528 12.1603C11.1916 12.0908 11.3448 12.0547 11.5 12.0547H14C14.5304 12.0547 15.0391 11.844 15.4142 11.4689C15.7893 11.0938 16 10.5851 16 10.0547V2.05469C16 1.52425 15.7893 1.01555 15.4142 0.640474C15.0391 0.265401 14.5304 0.0546875 14 0.0546875L2 0.0546875Z" fill="#A5B4FC"/>
<path d="M5 6.05469C5 6.3199 4.89464 6.57426 4.70711 6.76179C4.51957 6.94933 4.26522 7.05469 4 7.05469C3.73478 7.05469 3.48043 6.94933 3.29289 6.76179C3.10536 6.57426 3 6.3199 3 6.05469C3 5.78947 3.10536 5.53512 3.29289 5.34758C3.48043 5.16004 3.73478 5.05469 4 5.05469C4.26522 5.05469 4.51957 5.16004 4.70711 5.34758C4.89464 5.53512 5 5.78947 5 6.05469V6.05469ZM9 6.05469C9 6.3199 8.89464 6.57426 8.70711 6.76179C8.51957 6.94933 8.26522 7.05469 8 7.05469C7.73478 7.05469 7.48043 6.94933 7.29289 6.76179C7.10536 6.57426 7 6.3199 7 6.05469C7 5.78947 7.10536 5.53512 7.29289 5.34758C7.48043 5.16004 7.73478 5.05469 8 5.05469C8.26522 5.05469 8.51957 5.16004 8.70711 5.34758C8.89464 5.53512 9 5.78947 9 6.05469ZM13 6.05469C13 6.3199 12.8946 6.57426 12.7071 6.76179C12.5196 6.94933 12.2652 7.05469 12 7.05469C11.7348 7.05469 11.4804 6.94933 11.2929 6.76179C11.1054 6.57426 11 6.3199 11 6.05469C11 5.78947 11.1054 5.53512 11.2929 5.34758C11.4804 5.16004 11.7348 5.05469 12 5.05469C12.2652 5.05469 12.5196 5.16004 12.7071 5.34758C12.8946 5.53512 13 5.78947 13 6.05469Z" fill="#A5B4FC"/>
</g>
<defs>
<clipPath id="clip0_7515_12539">
<rect width="16" height="16" fill="white" transform="translate(0 0.0546875)"/>
</clipPath>
</defs>
</svg>
