<svg width="16" height="13" viewBox="0 0 16 13" fill="none" xmlns="http://www.w3.org/2000/svg">
<path fill-rule="evenodd" clip-rule="evenodd" d="M15 12.0547C15 12.0547 16 12.0547 16 11.0547C16 10.0547 15 7.05469 11 7.05469C7 7.05469 6 10.0547 6 11.0547C6 12.0547 7 12.0547 7 12.0547H15ZM7.022 11.0547H14.978C14.9827 11.0541 14.9874 11.0535 14.992 11.0527L15 11.0507C14.998 10.7867 14.833 10.0207 14.24 9.33069C13.688 8.68369 12.718 8.05469 11 8.05469C9.283 8.05469 8.313 8.68469 7.76 9.33069C7.167 10.0207 7.001 10.7877 7 11.0507C7.00732 11.0521 7.01465 11.0534 7.022 11.0547ZM11 5.05469C11.5304 5.05469 12.0391 4.84397 12.4142 4.4689C12.7893 4.09383 13 3.58512 13 3.05469C13 2.52425 12.7893 2.01555 12.4142 1.64047C12.0391 1.2654 11.5304 1.05469 11 1.05469C10.4696 1.05469 9.96086 1.2654 9.58579 1.64047C9.21071 2.01555 9 2.52425 9 3.05469C9 3.58512 9.21071 4.09383 9.58579 4.4689C9.96086 4.84397 10.4696 5.05469 11 5.05469ZM14 3.05469C14 3.44865 13.9224 3.83876 13.7716 4.20274C13.6209 4.56671 13.3999 4.89743 13.1213 5.17601C12.8427 5.45458 12.512 5.67556 12.1481 5.82633C11.7841 5.97709 11.394 6.05469 11 6.05469C10.606 6.05469 10.2159 5.97709 9.85195 5.82633C9.48797 5.67556 9.15726 5.45458 8.87868 5.17601C8.6001 4.89743 8.37913 4.56671 8.22836 4.20274C8.0776 3.83876 8 3.44865 8 3.05469C8 2.25904 8.31607 1.49598 8.87868 0.933367C9.44129 0.370758 10.2044 0.0546875 11 0.0546875C11.7956 0.0546875 12.5587 0.370758 13.1213 0.933367C13.6839 1.49598 14 2.25904 14 3.05469ZM6.936 7.33469C6.53598 7.20873 6.12364 7.12592 5.706 7.08769C5.47133 7.06537 5.23573 7.05436 5 7.05469C1 7.05469 0 10.0547 0 11.0547C0 11.7217 0.333 12.0547 1 12.0547H5.216C5.06776 11.7425 4.99382 11.4002 5 11.0547C5 10.0447 5.377 9.01269 6.09 8.15069C6.333 7.85669 6.616 7.58169 6.936 7.33469ZM4.92 8.05469C3.252 8.07469 2.305 8.69469 1.76 9.33069C1.163 10.0247 1 10.7937 1 11.0547H4C4 10.0097 4.323 8.96869 4.92 8.05469ZM1.5 3.55469C1.5 2.75904 1.81607 1.99598 2.37868 1.43337C2.94129 0.870758 3.70435 0.554688 4.5 0.554688C5.29565 0.554688 6.05871 0.870758 6.62132 1.43337C7.18393 1.99598 7.5 2.75904 7.5 3.55469C7.5 4.35034 7.18393 5.1134 6.62132 5.67601C6.05871 6.23862 5.29565 6.55469 4.5 6.55469C3.70435 6.55469 2.94129 6.23862 2.37868 5.67601C1.81607 5.1134 1.5 4.35034 1.5 3.55469ZM4.5 1.55469C3.96957 1.55469 3.46086 1.7654 3.08579 2.14047C2.71071 2.51555 2.5 3.02425 2.5 3.55469C2.5 4.08512 2.71071 4.59383 3.08579 4.9689C3.46086 5.34397 3.96957 5.55469 4.5 5.55469C5.03043 5.55469 5.53914 5.34397 5.91421 4.9689C6.28929 4.59383 6.5 4.08512 6.5 3.55469C6.5 3.02425 6.28929 2.51555 5.91421 2.14047C5.53914 1.7654 5.03043 1.55469 4.5 1.55469Z" fill="#A5B4FC"/>
</svg>
