<svg width="16" height="17" viewBox="0 0 16 17" fill="none" xmlns="http://www.w3.org/2000/svg">
<g clip-path="url(#clip0_7515_12517)">
<path fill-rule="evenodd" clip-rule="evenodd" d="M12 1.05469H4C3.73478 1.05469 3.48043 1.16004 3.29289 1.34758C3.10536 1.53512 3 1.78947 3 2.05469V12.8097C3 12.8097 4 11.0547 8 11.0547C12 11.0547 13 12.8097 13 12.8097V2.05469C13 1.78947 12.8946 1.53512 12.7071 1.34758C12.5196 1.16004 12.2652 1.05469 12 1.05469ZM4 0.0546875C3.46957 0.0546875 2.96086 0.265401 2.58579 0.640474C2.21071 1.01555 2 1.52425 2 2.05469V14.0547C2 14.5851 2.21071 15.0938 2.58579 15.4689C2.96086 15.844 3.46957 16.0547 4 16.0547H12C12.5304 16.0547 13.0391 15.844 13.4142 15.4689C13.7893 15.0938 14 14.5851 14 14.0547V2.05469C14 1.52425 13.7893 1.01555 13.4142 0.640474C13.0391 0.265401 12.5304 0.0546875 12 0.0546875L4 0.0546875Z" fill="#A5B4FC"/>
<path fill-rule="evenodd" clip-rule="evenodd" d="M8 10.0547C8.39397 10.0547 8.78407 9.97709 9.14805 9.82633C9.51203 9.67556 9.84274 9.45458 10.1213 9.17601C10.3999 8.89743 10.6209 8.56671 10.7716 8.20274C10.9224 7.83876 11 7.44865 11 7.05469C11 6.66072 10.9224 6.27061 10.7716 5.90664C10.6209 5.54266 10.3999 5.21194 10.1213 4.93337C9.84274 4.65479 9.51203 4.43381 9.14805 4.28305C8.78407 4.13228 8.39397 4.05469 8 4.05469C7.20435 4.05469 6.44129 4.37076 5.87868 4.93337C5.31607 5.49598 5 6.25904 5 7.05469C5 7.85034 5.31607 8.6134 5.87868 9.17601C6.44129 9.73862 7.20435 10.0547 8 10.0547V10.0547Z" fill="#A5B4FC"/>
</g>
<defs>
<clipPath id="clip0_7515_12517">
<rect width="16" height="16" fill="white" transform="translate(0 0.0546875)"/>
</clipPath>
</defs>
</svg>
