<svg width="16" height="17" viewBox="0 0 16 17" fill="none" xmlns="http://www.w3.org/2000/svg">
<g clip-path="url(#clip0_7515_12502)">
<path fill-rule="evenodd" clip-rule="evenodd" d="M4 0.0546875H12C12.5304 0.0546875 13.0391 0.265401 13.4142 0.640474C13.7893 1.01555 14 1.52425 14 2.05469V14.0547C14 14.5851 13.7893 15.0938 13.4142 15.4689C13.0391 15.844 12.5304 16.0547 12 16.0547H4C3.46957 16.0547 2.96086 15.844 2.58579 15.4689C2.21071 15.0938 2 14.5851 2 14.0547V2.05469C2 1.52425 2.21071 1.01555 2.58579 0.640474C2.96086 0.265401 3.46957 0.0546875 4 0.0546875V0.0546875ZM4 1.05469C3.73478 1.05469 3.48043 1.16004 3.29289 1.34758C3.10536 1.53512 3 1.78947 3 2.05469V12.0547L5.224 9.83069C5.30282 9.75206 5.40562 9.70198 5.51612 9.6884C5.62661 9.67481 5.73849 9.69849 5.834 9.75569L8 11.0547L10.157 8.03469C10.1992 7.97566 10.2538 7.92653 10.3169 7.89071C10.38 7.85488 10.4501 7.83322 10.5224 7.82722C10.5947 7.82123 10.6675 7.83104 10.7356 7.85599C10.8038 7.88094 10.8657 7.92042 10.917 7.97169L13 10.0547V2.05469C13 1.78947 12.8946 1.53512 12.7071 1.34758C12.5196 1.16004 12.2652 1.05469 12 1.05469H4Z" fill="#A5B4FC"/>
<path fill-rule="evenodd" clip-rule="evenodd" d="M6.50195 7.05469C6.69894 7.05469 6.89399 7.01589 7.07598 6.94051C7.25797 6.86512 7.42333 6.75464 7.56261 6.61535C7.7019 6.47606 7.81239 6.3107 7.88777 6.12871C7.96315 5.94672 8.00195 5.75167 8.00195 5.55469C8.00195 5.3577 7.96315 5.16265 7.88777 4.98066C7.81239 4.79867 7.7019 4.63332 7.56261 4.49403C7.42333 4.35474 7.25797 4.24425 7.07598 4.16887C6.89399 4.09349 6.69894 4.05469 6.50195 4.05469C6.10413 4.05469 5.7226 4.21272 5.44129 4.49403C5.15999 4.77533 5.00195 5.15686 5.00195 5.55469C5.00195 5.95251 5.15999 6.33404 5.44129 6.61535C5.7226 6.89665 6.10413 7.05469 6.50195 7.05469V7.05469Z" fill="#A5B4FC"/>
</g>
<defs>
<clipPath id="clip0_7515_12502">
<rect width="16" height="16" fill="white" transform="translate(0 0.0546875)"/>
</clipPath>
</defs>
</svg>
