<svg width="48" height="48" viewBox="0 0 48 48" fill="none" xmlns="http://www.w3.org/2000/svg">
    <rect x="0.5" y="0.5" width="47" height="47" rx="5.5" fill="white" />
    <rect x="0.5" y="0.5" width="47" height="47" rx="5.5" stroke="#6366F1" />
    <path fill-rule="evenodd" clip-rule="evenodd"
        d="M14.25 14.25C14.25 14.0511 14.329 13.8603 14.4697 13.7197C14.6103 13.579 14.8011 13.5 15 13.5H33C33.1989 13.5 33.3897 13.579 33.5303 13.7197C33.671 13.8603 33.75 14.0511 33.75 14.25V17.25C33.75 17.435 33.6816 17.6134 33.558 17.751L27 25.038V32.25C26.9999 32.4073 26.9503 32.5607 26.8582 32.6883C26.7661 32.8159 26.6363 32.9113 26.487 32.961L21.987 34.461C21.8743 34.4985 21.7543 34.5088 21.6369 34.4909C21.5195 34.4729 21.408 34.4274 21.3116 34.358C21.2153 34.2886 21.1367 34.1972 21.0826 34.0915C21.0284 33.9858 21.0001 33.8688 21 33.75V25.038L14.442 17.751C14.3184 17.6134 14.25 17.435 14.25 17.25V14.25ZM15.75 15V16.962L22.308 24.249C22.4316 24.3866 22.5 24.565 22.5 24.75V32.709L25.5 31.71V24.75C25.5 24.565 25.5684 24.3866 25.692 24.249L32.25 16.962V15H15.75Z"
        fill="#6366F1" />
</svg>