<svg width="45" height="46" viewBox="0 0 45 46" fill="none" xmlns="http://www.w3.org/2000/svg">
<rect x="0.5" y="1" width="44" height="44" rx="5.5" fill="white"/>
<rect x="0.5" y="1" width="44" height="44" rx="5.5" stroke="#6366F1"/>
<path d="M33.7526 13.9096C33.8927 14.0502 33.9714 14.2406 33.9714 14.4391C33.9714 14.6376 33.8927 14.828 33.7526 14.9686L32.1881 16.5346L29.1881 13.5346L30.7526 11.9686C30.8932 11.828 31.084 11.749 31.2828 11.749C31.4817 11.749 31.6724 11.828 31.8131 11.9686L33.7526 13.9081V13.9096ZM31.1276 17.5936L28.1276 14.5936L17.9081 24.8146C17.8255 24.8972 17.7634 24.9978 17.7266 25.1086L16.5191 28.7296C16.4972 28.7956 16.4941 28.8664 16.5101 28.9341C16.5261 29.0018 16.5607 29.0637 16.6098 29.1129C16.659 29.162 16.7209 29.1966 16.7886 29.2126C16.8563 29.2286 16.9271 29.2255 16.9931 29.2036L20.6141 27.9961C20.7247 27.9598 20.8254 27.8981 20.9081 27.8161L31.1276 17.5951V17.5936Z" fill="#6366F1"/>
<path fill-rule="evenodd" clip-rule="evenodd" d="M12 31.25C12 31.8467 12.2371 32.419 12.659 32.841C13.081 33.2629 13.6533 33.5 14.25 33.5H30.75C31.3467 33.5 31.919 33.2629 32.341 32.841C32.7629 32.419 33 31.8467 33 31.25V22.25C33 22.0511 32.921 21.8603 32.7803 21.7197C32.6397 21.579 32.4489 21.5 32.25 21.5C32.0511 21.5 31.8603 21.579 31.7197 21.7197C31.579 21.8603 31.5 22.0511 31.5 22.25V31.25C31.5 31.4489 31.421 31.6397 31.2803 31.7803C31.1397 31.921 30.9489 32 30.75 32H14.25C14.0511 32 13.8603 31.921 13.7197 31.7803C13.579 31.6397 13.5 31.4489 13.5 31.25V14.75C13.5 14.5511 13.579 14.3603 13.7197 14.2197C13.8603 14.079 14.0511 14 14.25 14H24C24.1989 14 24.3897 13.921 24.5303 13.7803C24.671 13.6397 24.75 13.4489 24.75 13.25C24.75 13.0511 24.671 12.8603 24.5303 12.7197C24.3897 12.579 24.1989 12.5 24 12.5H14.25C13.6533 12.5 13.081 12.7371 12.659 13.159C12.2371 13.581 12 14.1533 12 14.75V31.25Z" fill="#6366F1"/>
</svg>
