<svg width="28" height="28" viewBox="0 0 28 28" fill="none" xmlns="http://www.w3.org/2000/svg">
<rect x="0.5" y="0.5" width="27" height="27" rx="5.5" fill="white"/>
<rect x="0.5" y="0.5" width="27" height="27" rx="5.5" stroke="#6366F1"/>
<path fill-rule="evenodd" clip-rule="evenodd" d="M14 10C14.1326 10 14.2598 10.0527 14.3536 10.1464C14.4473 10.2402 14.5 10.3674 14.5 10.5V13.5H17.5C17.6326 13.5 17.7598 13.5527 17.8536 13.6464C17.9473 13.7402 18 13.8674 18 14C18 14.1326 17.9473 14.2598 17.8536 14.3536C17.7598 14.4473 17.6326 14.5 17.5 14.5H14.5V17.5C14.5 17.6326 14.4473 17.7598 14.3536 17.8536C14.2598 17.9473 14.1326 18 14 18C13.8674 18 13.7402 17.9473 13.6464 17.8536C13.5527 17.7598 13.5 17.6326 13.5 17.5V14.5H10.5C10.3674 14.5 10.2402 14.4473 10.1464 14.3536C10.0527 14.2598 10 14.1326 10 14C10 13.8674 10.0527 13.7402 10.1464 13.6464C10.2402 13.5527 10.3674 13.5 10.5 13.5H13.5V10.5C13.5 10.3674 13.5527 10.2402 13.6464 10.1464C13.7402 10.0527 13.8674 10 14 10Z" fill="#6366F1"/>
</svg>
