<svg width="16" height="17" viewBox="0 0 16 17" fill="none" xmlns="http://www.w3.org/2000/svg">
<path fill-rule="evenodd" clip-rule="evenodd" d="M2 2.55469C1.86739 2.55469 1.74021 2.60737 1.64645 2.70113C1.55268 2.7949 1.5 2.92208 1.5 3.05469V4.05469C1.5 4.1873 1.55268 4.31447 1.64645 4.40824C1.74021 4.50201 1.86739 4.55469 2 4.55469H3C3.13261 4.55469 3.25979 4.50201 3.35355 4.40824C3.44732 4.31447 3.5 4.1873 3.5 4.05469V3.05469C3.5 2.92208 3.44732 2.7949 3.35355 2.70113C3.25979 2.60737 3.13261 2.55469 3 2.55469H2ZM3 3.05469H2V4.05469H3V3.05469Z" fill="#A5B4FC"/>
<path d="M5 3.55469C5 3.42208 5.05268 3.2949 5.14645 3.20113C5.24021 3.10737 5.36739 3.05469 5.5 3.05469H14.5C14.6326 3.05469 14.7598 3.10737 14.8536 3.20113C14.9473 3.2949 15 3.42208 15 3.55469C15 3.6873 14.9473 3.81447 14.8536 3.90824C14.7598 4.00201 14.6326 4.05469 14.5 4.05469H5.5C5.36739 4.05469 5.24021 4.00201 5.14645 3.90824C5.05268 3.81447 5 3.6873 5 3.55469ZM5.5 7.05469C5.36739 7.05469 5.24021 7.10737 5.14645 7.20113C5.05268 7.2949 5 7.42208 5 7.55469C5 7.6873 5.05268 7.81447 5.14645 7.90824C5.24021 8.00201 5.36739 8.05469 5.5 8.05469H14.5C14.6326 8.05469 14.7598 8.00201 14.8536 7.90824C14.9473 7.81447 15 7.6873 15 7.55469C15 7.42208 14.9473 7.2949 14.8536 7.20113C14.7598 7.10737 14.6326 7.05469 14.5 7.05469H5.5ZM5.5 11.0547C5.36739 11.0547 5.24021 11.1074 5.14645 11.2011C5.05268 11.2949 5 11.4221 5 11.5547C5 11.6873 5.05268 11.8145 5.14645 11.9082C5.24021 12.002 5.36739 12.0547 5.5 12.0547H14.5C14.6326 12.0547 14.7598 12.002 14.8536 11.9082C14.9473 11.8145 15 11.6873 15 11.5547C15 11.4221 14.9473 11.2949 14.8536 11.2011C14.7598 11.1074 14.6326 11.0547 14.5 11.0547H5.5Z" fill="#A5B4FC"/>
<path fill-rule="evenodd" clip-rule="evenodd" d="M1.5 7.05469C1.5 6.92208 1.55268 6.7949 1.64645 6.70113C1.74021 6.60737 1.86739 6.55469 2 6.55469H3C3.13261 6.55469 3.25979 6.60737 3.35355 6.70113C3.44732 6.7949 3.5 6.92208 3.5 7.05469V8.05469C3.5 8.1873 3.44732 8.31447 3.35355 8.40824C3.25979 8.50201 3.13261 8.55469 3 8.55469H2C1.86739 8.55469 1.74021 8.50201 1.64645 8.40824C1.55268 8.31447 1.5 8.1873 1.5 8.05469V7.05469ZM2 7.05469H3V8.05469H2V7.05469ZM2 10.5547C1.86739 10.5547 1.74021 10.6074 1.64645 10.7011C1.55268 10.7949 1.5 10.9221 1.5 11.0547V12.0547C1.5 12.1873 1.55268 12.3145 1.64645 12.4082C1.74021 12.502 1.86739 12.5547 2 12.5547H3C3.13261 12.5547 3.25979 12.502 3.35355 12.4082C3.44732 12.3145 3.5 12.1873 3.5 12.0547V11.0547C3.5 10.9221 3.44732 10.7949 3.35355 10.7011C3.25979 10.6074 3.13261 10.5547 3 10.5547H2ZM3 11.0547H2V12.0547H3V11.0547Z" fill="#A5B4FC"/>
</svg>
