<svg width="16" height="17" viewBox="0 0 16 17" fill="none" xmlns="http://www.w3.org/2000/svg">
<path d="M15.5017 2.44039C15.5951 2.53412 15.6476 2.66106 15.6476 2.79339C15.6476 2.92573 15.5951 3.05267 15.5017 3.14639L14.4587 4.19039L12.4587 2.19039L13.5017 1.14639C13.5955 1.05266 13.7226 1 13.8552 1C13.9878 1 14.115 1.05266 14.2087 1.14639L15.5017 2.43939V2.44039ZM13.7517 4.89639L11.7517 2.89639L4.93872 9.71039C4.88368 9.76542 4.84225 9.83253 4.81772 9.90639L4.01272 12.3204C3.99812 12.3644 3.99604 12.4116 4.00673 12.4567C4.01741 12.5018 4.04044 12.5431 4.07322 12.5759C4.10601 12.6087 4.14727 12.6317 4.19239 12.6424C4.23751 12.6531 4.28471 12.651 4.32872 12.6364L6.74272 11.8314C6.81648 11.8072 6.88359 11.7661 6.93872 11.7114L13.7517 4.89739V4.89639Z" fill="#4F46E5"/>
<path fill-rule="evenodd" clip-rule="evenodd" d="M1 14C1 14.3978 1.15804 14.7794 1.43934 15.0607C1.72064 15.342 2.10218 15.5 2.5 15.5H13.5C13.8978 15.5 14.2794 15.342 14.5607 15.0607C14.842 14.7794 15 14.3978 15 14V8C15 7.86739 14.9473 7.74021 14.8536 7.64645C14.7598 7.55268 14.6326 7.5 14.5 7.5C14.3674 7.5 14.2402 7.55268 14.1464 7.64645C14.0527 7.74021 14 7.86739 14 8V14C14 14.1326 13.9473 14.2598 13.8536 14.3536C13.7598 14.4473 13.6326 14.5 13.5 14.5H2.5C2.36739 14.5 2.24021 14.4473 2.14645 14.3536C2.05268 14.2598 2 14.1326 2 14V3C2 2.86739 2.05268 2.74021 2.14645 2.64645C2.24021 2.55268 2.36739 2.5 2.5 2.5H9C9.13261 2.5 9.25979 2.44732 9.35355 2.35355C9.44732 2.25979 9.5 2.13261 9.5 2C9.5 1.86739 9.44732 1.74021 9.35355 1.64645C9.25979 1.55268 9.13261 1.5 9 1.5H2.5C2.10218 1.5 1.72064 1.65804 1.43934 1.93934C1.15804 2.22064 1 2.60218 1 3V14Z" fill="#4F46E5"/>
</svg>
