<svg width="16" height="16" viewBox="0 0 16 16" fill="none" xmlns="http://www.w3.org/2000/svg">
<path fill-rule="evenodd" clip-rule="evenodd" d="M15.8253 0.174594C15.9073 0.244657 15.9646 0.339393 15.9883 0.444652C16.0121 0.549911 16.0012 0.660042 15.9573 0.758594C14.4273 4.18859 11.2143 8.92859 8.86227 11.3986C8.20302 12.0896 7.38997 12.6152 6.48926 12.9326C6.47126 13.1596 6.42926 13.4706 6.32926 13.8006C6.12826 14.4596 5.66226 15.2796 4.62126 15.5406C3.6131 15.7807 2.56828 15.8255 1.54326 15.6726C1.35233 15.6425 1.16407 15.5974 0.980264 15.5376C0.810867 15.4858 0.653002 15.402 0.515264 15.2906C0.424235 15.2132 0.354092 15.1142 0.311264 15.0026C0.258182 14.8594 0.259606 14.7018 0.315264 14.5596C0.410264 14.3146 0.631264 14.1796 0.776264 14.1076C1.16926 13.9106 1.40126 13.6546 1.64326 13.2816C1.73726 13.1376 1.82726 12.9846 1.93026 12.8096L2.04726 12.6116C2.19826 12.3566 2.37326 12.0716 2.59326 11.7636C3.12126 11.0246 3.79326 10.8386 4.33926 10.8676C4.46526 10.8746 4.58226 10.8926 4.68726 10.9156C4.74926 10.7436 4.82926 10.5356 4.92526 10.3076C5.18626 9.68859 5.58326 8.88859 6.11226 8.23859C8.28726 5.56859 12.2923 2.03259 15.2293 0.134594C15.3197 0.0762337 15.4265 0.0486037 15.5339 0.0558102C15.6413 0.0630166 15.7435 0.104675 15.8253 0.174594V0.174594ZM4.70526 11.9666C4.57257 11.9089 4.43073 11.875 4.28626 11.8666C4.03926 11.8536 3.71226 11.9166 3.40626 12.3456C3.2288 12.5975 3.06198 12.8567 2.90626 13.1226L2.80226 13.2996C2.69526 13.4806 2.58926 13.6616 2.48226 13.8276C2.27626 14.1446 2.04426 14.4376 1.72226 14.6886C2.60761 14.8157 3.50897 14.775 4.37926 14.5686C4.93826 14.4296 5.22226 13.9996 5.37226 13.5086C5.44468 13.2647 5.48699 13.0128 5.49826 12.7586L4.70526 11.9666V11.9666ZM6.14526 11.9926C6.26526 11.9526 6.42226 11.8926 6.60326 11.8096C7.17933 11.5423 7.70003 11.1692 8.13826 10.7096C10.0383 8.71359 12.5503 5.13959 14.1903 2.07859C11.5993 4.00559 8.62426 6.73859 6.88826 8.87059C6.44626 9.41359 6.09226 10.1136 5.84626 10.6966C5.74623 10.9338 5.65417 11.1742 5.57026 11.4176L6.14526 11.9926V11.9926ZM1.17226 15.0326L1.17926 15.0276C1.17711 15.0292 1.17476 15.0306 1.17226 15.0316V15.0326ZM4.75426 11.9896L4.75626 11.9906H4.75426V11.9896Z" fill="#A5B4FC"/>
</svg>
