<svg width="16" height="17" viewBox="0 0 16 17" fill="none" xmlns="http://www.w3.org/2000/svg">
<g clip-path="url(#clip0_7515_12551)">
<path fill-rule="evenodd" clip-rule="evenodd" d="M1.5 1.05469C1.36739 1.05469 1.24021 1.10737 1.14645 1.20113C1.05268 1.2949 1 1.42208 1 1.55469V4.55469C1 4.6873 0.947322 4.81447 0.853553 4.90824C0.759785 5.00201 0.632608 5.05469 0.5 5.05469C0.367392 5.05469 0.240215 5.00201 0.146447 4.90824C0.0526784 4.81447 0 4.6873 0 4.55469V1.55469C0 1.15686 0.158035 0.775332 0.43934 0.494027C0.720644 0.212723 1.10218 0.0546875 1.5 0.0546875L4.5 0.0546875C4.63261 0.0546875 4.75979 0.107366 4.85355 0.201134C4.94732 0.294902 5 0.422079 5 0.554688C5 0.687296 4.94732 0.814473 4.85355 0.908241C4.75979 1.00201 4.63261 1.05469 4.5 1.05469H1.5ZM11 0.554688C11 0.422079 11.0527 0.294902 11.1464 0.201134C11.2402 0.107366 11.3674 0.0546875 11.5 0.0546875L14.5 0.0546875C14.8978 0.0546875 15.2794 0.212723 15.5607 0.494027C15.842 0.775332 16 1.15686 16 1.55469V4.55469C16 4.6873 15.9473 4.81447 15.8536 4.90824C15.7598 5.00201 15.6326 5.05469 15.5 5.05469C15.3674 5.05469 15.2402 5.00201 15.1464 4.90824C15.0527 4.81447 15 4.6873 15 4.55469V1.55469C15 1.42208 14.9473 1.2949 14.8536 1.20113C14.7598 1.10737 14.6326 1.05469 14.5 1.05469H11.5C11.3674 1.05469 11.2402 1.00201 11.1464 0.908241C11.0527 0.814473 11 0.687296 11 0.554688V0.554688ZM0.5 11.0547C0.632608 11.0547 0.759785 11.1074 0.853553 11.2011C0.947322 11.2949 1 11.4221 1 11.5547V14.5547C1 14.6873 1.05268 14.8145 1.14645 14.9082C1.24021 15.002 1.36739 15.0547 1.5 15.0547H4.5C4.63261 15.0547 4.75979 15.1074 4.85355 15.2011C4.94732 15.2949 5 15.4221 5 15.5547C5 15.6873 4.94732 15.8145 4.85355 15.9082C4.75979 16.002 4.63261 16.0547 4.5 16.0547H1.5C1.10218 16.0547 0.720644 15.8967 0.43934 15.6153C0.158035 15.334 0 14.9525 0 14.5547L0 11.5547C0 11.4221 0.0526784 11.2949 0.146447 11.2011C0.240215 11.1074 0.367392 11.0547 0.5 11.0547V11.0547ZM15.5 11.0547C15.6326 11.0547 15.7598 11.1074 15.8536 11.2011C15.9473 11.2949 16 11.4221 16 11.5547V14.5547C16 14.9525 15.842 15.334 15.5607 15.6153C15.2794 15.8967 14.8978 16.0547 14.5 16.0547H11.5C11.3674 16.0547 11.2402 16.002 11.1464 15.9082C11.0527 15.8145 11 15.6873 11 15.5547C11 15.4221 11.0527 15.2949 11.1464 15.2011C11.2402 15.1074 11.3674 15.0547 11.5 15.0547H14.5C14.6326 15.0547 14.7598 15.002 14.8536 14.9082C14.9473 14.8145 15 14.6873 15 14.5547V11.5547C15 11.4221 15.0527 11.2949 15.1464 11.2011C15.2402 11.1074 15.3674 11.0547 15.5 11.0547Z" fill="#A5B4FC"/>
<path fill-rule="evenodd" clip-rule="evenodd" d="M3 14.0547C3 14.0547 2 14.0547 2 13.0547C2 12.0547 3 9.05469 8 9.05469C13 9.05469 14 12.0547 14 13.0547C14 14.0547 13 14.0547 13 14.0547H3ZM8 8.05469C8.79565 8.05469 9.55871 7.73862 10.1213 7.17601C10.6839 6.6134 11 5.85034 11 5.05469C11 4.25904 10.6839 3.49598 10.1213 2.93337C9.55871 2.37076 8.79565 2.05469 8 2.05469C7.20435 2.05469 6.44129 2.37076 5.87868 2.93337C5.31607 3.49598 5 4.25904 5 5.05469C5 5.85034 5.31607 6.6134 5.87868 7.17601C6.44129 7.73862 7.20435 8.05469 8 8.05469V8.05469Z" fill="#A5B4FC"/>
</g>
<defs>
<clipPath id="clip0_7515_12551">
<rect width="16" height="16" fill="white" transform="translate(0 0.0546875)"/>
</clipPath>
</defs>
</svg>
