<svg width="20" height="21" viewBox="0 0 20 21" fill="none" xmlns="http://www.w3.org/2000/svg">
<g clip-path="url(#clip0_5842_22721)">
<path fill-rule="evenodd" clip-rule="evenodd" d="M4.55832 2.15451C4.48453 2.05959 4.39139 1.98145 4.28508 1.92529C4.17877 1.86913 4.06172 1.83624 3.94172 1.82879C3.82172 1.82134 3.70151 1.83951 3.58907 1.88209C3.47663 1.92467 3.37454 1.99069 3.28957 2.07576L1.99707 3.36951C1.39332 3.97451 1.17082 4.83076 1.43457 5.58201C2.52925 8.69149 4.30994 11.5146 6.64457 13.842C8.97198 16.1766 11.7951 17.9573 14.9046 19.052C15.6558 19.3158 16.5121 19.0933 17.1171 18.4895L18.4096 17.197C18.4946 17.112 18.5607 17.01 18.6032 16.8975C18.6458 16.7851 18.664 16.6649 18.6565 16.5449C18.6491 16.4249 18.6162 16.3078 18.56 16.2015C18.5039 16.0952 18.4257 16.0021 18.3308 15.9283L15.4471 13.6858C15.3457 13.6071 15.2277 13.5525 15.1021 13.5261C14.9765 13.4997 14.8466 13.5021 14.7221 13.5333L11.9846 14.217C11.6192 14.3083 11.2363 14.3035 10.8734 14.2029C10.5104 14.1024 10.1797 13.9096 9.91332 13.6433L6.84332 10.572C6.57678 10.3058 6.38373 9.97511 6.28296 9.61213C6.1822 9.24915 6.17715 8.86627 6.26832 8.50076L6.95332 5.76326C6.98446 5.63875 6.98691 5.5088 6.96049 5.38321C6.93407 5.25762 6.87948 5.13967 6.80082 5.03826L4.55832 2.15451ZM2.34582 1.13326C2.56457 0.914446 2.82736 0.744672 3.11675 0.635211C3.40614 0.525749 3.7155 0.479105 4.0243 0.498376C4.3331 0.517646 4.63426 0.60239 4.9078 0.74698C5.18133 0.891571 5.42098 1.0927 5.61082 1.33701L7.85332 4.21951C8.26457 4.74826 8.40957 5.43701 8.24707 6.08701L7.56332 8.82451C7.52797 8.9663 7.52988 9.11482 7.56887 9.25565C7.60785 9.39648 7.68259 9.52484 7.78582 9.62826L10.8571 12.6995C10.9606 12.803 11.0892 12.8778 11.2303 12.9168C11.3713 12.9558 11.5201 12.9576 11.6621 12.922L14.3983 12.2383C14.7191 12.1581 15.0539 12.1518 15.3774 12.22C15.701 12.2883 16.0047 12.4291 16.2658 12.632L19.1483 14.8745C20.1846 15.6808 20.2796 17.212 19.3521 18.1383L18.0596 19.4308C17.1346 20.3558 15.7521 20.762 14.4633 20.3083C11.1648 19.1477 8.16991 17.2593 5.70082 14.7833C3.22493 12.3145 1.33658 9.32008 0.175823 6.02201C-0.276677 4.73451 0.129573 3.35076 1.05457 2.42576L2.34707 1.13326H2.34582Z" fill="#6366F1"/>
</g>
<defs>
<clipPath id="clip0_5842_22721">
<rect width="20" height="20" fill="white" transform="translate(0 0.5)"/>
</clipPath>
</defs>
</svg>
