<svg width="20" height="24" viewBox="0 0 20 24" fill="none" xmlns="http://www.w3.org/2000/svg">
<g clip-path="url(#clip0_191_1031)">
<path d="M17.9472 20.9815C16.9531 22.4665 15.8992 23.9156 14.2945 23.9396C12.6897 23.9755 12.1747 22.9935 10.3543 22.9935C8.522 22.9935 7.95913 23.9157 6.43814 23.9755C4.86927 24.0354 3.68365 22.3947 2.67766 20.9456C0.629753 17.9875 -0.939109 12.5384 1.16868 8.87374C2.21059 7.05338 4.07885 5.90368 6.10281 5.86775C7.63578 5.8438 9.09685 6.90966 10.043 6.90966C10.9771 6.90966 12.7495 5.62823 14.6058 5.81984C15.3843 5.85577 17.5639 6.13122 18.9651 8.1911C18.8573 8.26296 16.3663 9.72404 16.3903 12.754C16.4262 16.3707 19.5639 17.5803 19.5998 17.5923C19.5639 17.6761 19.0969 19.3168 17.9472 20.9815ZM11.1088 1.81984C11.9831 0.825833 13.4322 0.0713417 14.6298 0.0234375C14.7855 1.42463 14.2226 2.83781 13.3843 3.8438C12.5579 4.86176 11.1927 5.65218 9.85135 5.54439C9.6717 4.16715 10.3424 2.73002 11.1088 1.81984Z" fill="black"/>
</g>
<defs>
<clipPath id="clip0_191_1031">
<rect width="19.4731" height="24" fill="white" transform="translate(0.138672)"/>
</clipPath>
</defs>
</svg>
