<svg width="25" height="24" viewBox="0 0 25 24" fill="none" xmlns="http://www.w3.org/2000/svg">
<path d="M24.1396 12.093C24.1396 11.2588 24.0734 10.4202 23.9323 9.59961H12.6094V14.3248H19.0935C18.8244 15.8488 17.7187 17.3829 16.4528 18.2396L16.6939 21.1196L20.2962 21.1196C22.5678 18.9824 24.1396 15.8263 24.1396 12.093Z" fill="#4285F4"/>
<path d="M12.3158 24.0004C15.5624 24.0004 18.3003 22.9488 20.2952 21.1335L16.4518 18.2404C15.3725 18.9648 13.9435 19.3008 12.3202 19.3008C9.17973 19.3008 6.3574 17.2106 5.40199 14.4004H1.55859V17.4593C3.6021 21.4695 7.76431 24.0004 12.3158 24.0004Z" fill="#34A853"/>
<path d="M5.4021 14.4005C4.85143 12.94 5.09165 11.0609 5.64231 9.60047L5.88252 6.72047L1.55869 6.48047C-0.305852 9.80315 -0.348709 13.9578 1.51583 17.2805L5.4021 14.4005Z" fill="#FBBC04"/>
<path d="M12.5475 4.69791C14.3006 4.67174 15.9951 5.30849 17.2648 6.47731L20.7756 3.08859C18.5525 1.07368 15.602 -0.0340905 12.5475 0.000799855C7.89799 0.000799855 3.64612 2.46761 1.55859 6.48L5.64328 9.6C6.61475 6.78697 9.33938 4.69791 12.5475 4.69791Z" fill="#EA4335"/>
</svg>
