<svg width="25" height="24" viewBox="0 0 25 24" fill="none" xmlns="http://www.w3.org/2000/svg">
<g clip-path="url(#clip0_191_1033)">
<path d="M0.611328 3C0.611328 1.34315 1.95447 0 3.61133 0H21.6113C23.2682 0 24.6113 1.34315 24.6113 3V21C24.6113 22.6569 23.2682 24 21.6113 24H3.61133C1.95447 24 0.611328 22.6569 0.611328 21V3Z" fill="#168DE2"/>
<path d="M12.2648 6.60661C13.7283 6.60661 15.1073 7.25535 16.1178 8.26949V8.27248C16.1178 7.78548 16.4455 7.41708 16.8984 7.41708H17.0134C17.7281 7.41708 17.8712 8.09098 17.8712 8.30363L17.8742 15.8722C17.8245 16.3682 18.3864 16.6246 18.6985 16.3059C19.9116 15.0582 21.3655 9.88505 17.9431 6.88995C14.7514 4.09432 10.4677 4.55617 8.1901 6.1256C5.76937 7.79806 4.22204 11.4922 5.72504 14.9641C7.36642 18.7493 12.0587 19.8785 14.8515 18.7523C16.2652 18.1815 16.917 20.0899 15.4475 20.7147C13.2328 21.6594 7.0609 21.5629 4.17831 16.5713C2.23082 13.1994 2.33385 7.26793 7.5012 4.19496C11.4507 1.84261 16.6618 2.49434 19.8032 5.77397C23.0859 9.20576 22.896 15.6266 19.6911 18.1228C18.2397 19.2579 16.0843 18.1539 16.0999 16.5L16.0837 15.9609C15.0731 16.9619 13.7283 17.5489 12.2648 17.5489C9.36962 17.5489 6.82069 14.9995 6.82069 12.1074C6.82069 9.18419 9.36962 6.60781 12.2648 6.60781V6.60661ZM15.9064 11.8983C15.7968 9.77962 14.2243 8.50371 12.3241 8.50371H12.2522C10.0621 8.50371 8.84545 10.2289 8.84545 12.1847C8.84545 14.3777 10.3149 15.7626 12.2432 15.7626C14.3956 15.7626 15.8087 14.1878 15.9118 12.3249L15.9064 11.8983Z" fill="#FFA930"/>
</g>
<defs>
<clipPath id="clip0_191_1033">
<rect width="24" height="24" fill="white" transform="translate(0.611328)"/>
</clipPath>
</defs>
</svg>
