<svg width="32" height="32" viewBox="0 0 32 32" fill="none" xmlns="http://www.w3.org/2000/svg">
<path d="M16.0352 32H15.9648C7.16189 32 0 24.8381 0 16.0352V15.9648C0 7.16189 7.16189 0 15.9648 0H16.0352C24.8381 0 32 7.16189 32 15.9648V16.0352C32 24.8381 24.8381 32 16.0352 32ZM15.9648 1.08317C7.75871 1.08317 1.08317 7.75871 1.08317 15.9648V16.0352C1.08317 24.2413 7.75871 30.9168 15.9648 30.9168H16.0352C24.2413 30.9168 30.9168 24.2413 30.9168 16.0352V15.9648C30.9168 7.75871 24.2413 1.08317 16.0352 1.08317H15.9648Z" fill="#6E6E6E" fill-opacity="0.5"/>
<path d="M7.25434 15.926C7.29108 15.9079 7.32784 15.8908 7.36367 15.8746C7.98648 15.5914 8.61755 15.3262 9.2477 15.0611C9.28169 15.0611 9.33863 15.0223 9.37078 15.0097C9.41947 14.9889 9.46816 14.9691 9.51684 14.9483C9.61054 14.9087 9.70424 14.8699 9.79702 14.8302C9.98441 14.7517 10.1709 14.6733 10.3583 14.5948C10.7321 14.4379 11.106 14.281 11.4799 14.1231C12.2276 13.8093 12.9763 13.4945 13.724 13.1807C14.4717 12.8668 15.2204 12.5521 15.9681 12.2382C16.7159 11.9244 17.4645 11.6096 18.2122 11.2958C18.96 10.9819 19.7086 10.6672 20.4564 10.3533C20.6226 10.283 20.8027 10.1783 20.9809 10.1477C21.1306 10.1215 21.2767 10.071 21.4273 10.0431C21.713 9.98985 22.0281 9.9682 22.3018 10.0845C22.3964 10.1251 22.4837 10.1819 22.5563 10.2532C22.9035 10.5905 22.8548 11.1442 22.7813 11.6186C22.2697 14.9249 21.758 18.2321 21.2454 21.5383C21.1756 21.992 21.0801 22.4898 20.7154 22.7766C20.4067 23.0192 19.9677 23.0462 19.5864 22.9434C19.2052 22.8397 18.869 22.6224 18.5393 22.4086C17.1715 21.5194 15.8028 20.6301 14.435 19.7409C14.1098 19.5298 13.7479 19.2539 13.7516 18.8706C13.7534 18.6397 13.8939 18.4341 14.0372 18.251C15.2259 16.7286 16.9409 15.6825 18.2168 14.2305C18.3969 14.0257 18.5383 13.656 18.2912 13.5378C18.1443 13.4675 17.9752 13.5631 17.8411 13.6541C16.1546 14.804 14.469 15.9548 12.7824 17.1047C12.2322 17.4799 11.6553 17.8659 10.9921 17.9579C10.3987 18.0408 9.80162 17.8785 9.2275 17.7126C8.74615 17.5737 8.26571 17.4312 7.78713 17.2842C7.53268 17.2066 7.26996 17.1227 7.07338 16.9469C6.8768 16.771 6.76383 16.4752 6.88233 16.2407C6.95673 16.0937 7.10096 16.0008 7.25252 15.9251L7.25434 15.926Z" fill="#6E6E6E" fill-opacity="0.5"/>
</svg>
