<svg width="33" height="32" viewBox="0 0 33 32" fill="none" xmlns="http://www.w3.org/2000/svg">
<path d="M16.3704 21C11.0694 21 8.0459 17.2462 7.91992 11H10.5752C10.6625 15.5846 12.62 17.5265 14.1705 17.9269V11H16.6709V14.954C18.202 14.7838 19.8105 12.982 20.3532 11H22.8535C22.4368 13.4424 20.6925 15.2442 19.452 15.985C20.6925 16.5856 22.6792 18.1572 23.4351 21H20.6828C20.0916 19.0981 18.6187 17.6266 16.6709 17.4264V21H16.3704Z" fill="#6E6E6E" fill-opacity="0.5"/>
<path d="M16.2071 32H16.1367C7.33378 32 0.171875 24.8381 0.171875 16.0352V15.9648C0.171875 7.16189 7.33378 0 16.1367 0H16.2071C25.01 0 32.1719 7.16189 32.1719 15.9648V16.0352C32.1719 24.8381 25.01 32 16.2071 32ZM16.1367 1.08317C7.9306 1.08317 1.25504 7.75871 1.25504 15.9648V16.0352C1.25504 24.2413 7.9306 30.9168 16.1367 30.9168H16.2071C24.4132 30.9168 31.0887 24.2413 31.0887 16.0352V15.9648C31.0887 7.75871 24.4132 1.08317 16.2071 1.08317H16.1367Z" fill="#6E6E6E" fill-opacity="0.5"/>
</svg>
