<svg width="25" height="24" viewBox="0 0 25 24" fill="none" xmlns="http://www.w3.org/2000/svg">
<path d="M0.388672 11.52C0.388672 6.0894 0.388672 3.37413 2.07574 1.68707C3.7628 0 6.47807 0 11.9087 0H12.8687C18.2993 0 21.0145 0 22.7016 1.68707C24.3887 3.37413 24.3887 6.0894 24.3887 11.52V12.48C24.3887 17.9106 24.3887 20.6259 22.7016 22.313C21.0145 24 18.2993 24 12.8687 24H11.9087C6.47807 24 3.7628 24 2.07574 22.313C0.388672 20.6259 0.388672 17.9106 0.388672 12.48V11.52Z" fill="#0077FF"/>
<path d="M13.1173 17.2792C7.5414 17.2792 4.36103 13.4954 4.22852 7.19922H7.02157C7.11331 11.8205 9.17238 13.778 10.8034 14.1816V7.19922H13.4334V11.1848C15.044 11.0133 16.7359 9.19706 17.3068 7.19922H19.9368C19.4985 9.6612 17.6636 11.4774 16.3588 12.2241C17.6636 12.8295 19.7534 14.4136 20.5485 17.2792H17.6534C17.0316 15.3621 15.4823 13.8789 13.4334 13.6771V17.2792H13.1173Z" fill="white"/>
</svg>
