<svg width="32" height="32" viewBox="0 0 32 32" fill="none" xmlns="http://www.w3.org/2000/svg">
<path d="M16.0352 32H15.9648C7.1619 32 0 24.8381 0 16.0352V15.9648C0 7.16189 7.1619 0 15.9648 0H16.0352C24.8381 0 32 7.16189 32 15.9648V16.0352C32 24.8381 24.8381 32 16.0352 32ZM15.9648 1.08317C7.75872 1.08317 1.08317 7.75871 1.08317 15.9648V16.0352C1.08317 24.2413 7.75872 30.9168 15.9648 30.9168H16.0352C24.2413 30.9168 30.9168 24.2413 30.9168 16.0352V15.9648C30.9168 7.75871 24.2413 1.08317 16.0352 1.08317H15.9648Z" fill="#6E6E6E" fill-opacity="0.5"/>
<path d="M18.2293 18.9817C15.0857 18.9817 12.5282 16.502 12.5273 13.4551C12.5282 12.6827 13.1771 12.0547 13.9722 12.0547C14.0539 12.0547 14.1348 12.0614 14.2123 12.0747C14.3827 12.1022 14.5445 12.1581 14.6933 12.2424C14.7148 12.2549 14.7295 12.2749 14.7329 12.2983L15.0651 14.3275C15.0694 14.3517 15.0616 14.3751 15.0453 14.3926C14.862 14.5894 14.6279 14.7313 14.3672 14.8021L14.2415 14.8363L14.2889 14.9539C14.7174 16.0115 15.59 16.8565 16.682 17.2735L16.8034 17.3202L16.8386 17.1984C16.9118 16.9457 17.0581 16.7188 17.2612 16.5412C17.2758 16.5278 17.2956 16.5212 17.3154 16.5212C17.3197 16.5212 17.324 16.5212 17.3292 16.522L19.4228 16.844C19.4478 16.8481 19.4685 16.8615 19.4814 16.8823C19.5674 17.0266 19.6251 17.1842 19.6543 17.3494C19.6681 17.4228 19.6741 17.5004 19.6741 17.5813C19.6741 18.3528 19.0261 18.9809 18.2293 18.9817Z" fill="#6E6E6E" fill-opacity="0.5"/>
<path d="M23.8039 14.8311C23.6343 12.9744 22.7566 11.2521 21.3324 9.98176C19.8996 8.70396 18.0408 8 16.0969 8C11.8303 8 8.35892 11.3647 8.35892 15.5C8.35892 16.8879 8.7539 18.2399 9.50171 19.4176L7.83398 22.9958L13.1736 22.4445C14.1022 22.8132 15.0849 23 16.096 23C16.3619 23 16.6347 22.9867 16.9084 22.9591C17.1493 22.9341 17.3929 22.8974 17.6321 22.8507C21.205 22.1509 23.8133 19.0773 23.834 15.54V15.5C23.834 15.2748 23.8237 15.0496 23.803 14.8319L23.8039 14.8311ZM13.3793 20.8739L10.4251 21.1792L11.3071 19.285L11.1307 19.0557C11.1178 19.039 11.1049 19.0223 11.0903 19.0031C10.3244 17.978 9.91993 16.767 9.91993 15.5008C9.91993 12.1996 12.6909 9.51384 16.0969 9.51384C19.2878 9.51384 21.9924 11.9268 22.2532 15.0071C22.2669 15.1722 22.2747 15.3382 22.2747 15.5017C22.2747 15.5484 22.2738 15.5942 22.273 15.6435C22.2076 18.4051 20.2171 20.7505 17.4324 21.3477C17.2199 21.3936 17.0022 21.4286 16.7853 21.4511C16.5598 21.4762 16.3284 21.4887 16.0986 21.4887C15.2802 21.4887 14.4851 21.3352 13.7338 21.0316C13.6504 20.9991 13.5686 20.964 13.492 20.9282L13.3802 20.8756L13.3793 20.8739Z" fill="#6E6E6E" fill-opacity="0.5"/>
</svg>
