<svg width="23" height="23" viewBox="0 0 23 23" fill="none" xmlns="http://www.w3.org/2000/svg">
<path d="M10.75 7C10.75 6.58579 10.4142 6.25 10 6.25C9.58579 6.25 9.25 6.58579 9.25 7V9.25H7C6.58579 9.25 6.25 9.58579 6.25 10C6.25 10.4142 6.58579 10.75 7 10.75H9.25V13C9.25 13.4142 9.58579 13.75 10 13.75C10.4142 13.75 10.75 13.4142 10.75 13V10.75H13C13.4142 10.75 13.75 10.4142 13.75 10C13.75 9.58579 13.4142 9.25 13 9.25H10.75V7Z" fill="#6E6E6E"/>
<path fill-rule="evenodd" clip-rule="evenodd" d="M10 0.25C4.61522 0.25 0.25 4.61522 0.25 10C0.25 15.3848 4.61522 19.75 10 19.75C15.3848 19.75 19.75 15.3848 19.75 10C19.75 4.61522 15.3848 0.25 10 0.25ZM1.75 10C1.75 5.44365 5.44365 1.75 10 1.75C14.5563 1.75 18.25 5.44365 18.25 10C18.25 14.5563 14.5563 18.25 10 18.25C5.44365 18.25 1.75 14.5563 1.75 10Z" fill="#6E6E6E"/>
<path d="M18.3588 17.2982C18.0659 17.0053 17.591 17.0053 17.2981 17.2982C17.0052 17.5911 17.0052 18.066 17.2981 18.3589L21.298 22.3588C21.5909 22.6517 22.0658 22.6517 22.3587 22.3588C22.6516 22.0659 22.6516 21.5911 22.3587 21.2982L18.3588 17.2982Z" fill="#6E6E6E"/>
</svg>
