<svg width="22" height="23" viewBox="0 0 22 23" fill="none" xmlns="http://www.w3.org/2000/svg">
<path d="M1.75 12C1.75 11.5858 1.41421 11.25 1 11.25C0.585786 11.25 0.25 11.5858 0.25 12H1.75ZM4.99903 4L5.44953 4.59962L4.99903 4ZM3 5.99903L3.55483 6.50367L3.57849 6.47765L3.59962 6.44953L3 5.99903ZM3.01269 1.00335C3.01454 0.589137 2.68025 0.251855 2.26604 0.250007C1.85183 0.248159 1.51455 0.582444 1.5127 0.996654L3.01269 1.00335ZM2.25384 2.98571L1.50384 2.98237L2.25384 2.98571ZM5.93384 6.66571L5.93718 7.41571H5.93718L5.93384 6.66571ZM7.9229 7.40685C8.33711 7.405 8.67139 7.06772 8.66954 6.65351C8.66769 6.2393 8.33041 5.90501 7.9162 5.90686L7.9229 7.40685ZM2.66238 5.90267L2.06926 6.36169L2.06926 6.36169L2.66238 5.90267ZM3.01688 6.25717L2.55786 6.85029L2.55786 6.85029L3.01688 6.25717ZM0.25 12C0.25 17.9371 5.06294 22.75 11 22.75V21.25C5.89137 21.25 1.75 17.1086 1.75 12H0.25ZM11 22.75C16.9371 22.75 21.75 17.9371 21.75 12H20.25C20.25 17.1086 16.1086 21.25 11 21.25V22.75ZM21.75 12C21.75 6.06294 16.9371 1.25 11 1.25V2.75C16.1086 2.75 20.25 6.89137 20.25 12H21.75ZM11 1.25C8.58034 1.25 6.34544 2.05032 4.54852 3.40038L5.44953 4.59962C6.99559 3.43804 8.91636 2.75 11 2.75V1.25ZM4.54852 3.40038C3.73519 4.01145 3.01145 4.73519 2.40038 5.54852L3.59962 6.44953C4.12582 5.74916 4.74916 5.12582 5.44953 4.59962L4.54852 3.40038ZM1.5127 0.996654L1.50384 2.98237L3.00383 2.98906L3.01269 1.00335L1.5127 0.996654ZM5.93718 7.41571L7.9229 7.40685L7.9162 5.90686L5.93049 5.91572L5.93718 7.41571ZM1.50384 2.98237C1.50039 3.75651 1.49638 4.4005 1.55271 4.91635C1.61069 5.44728 1.74029 5.93661 2.06926 6.36169L3.25551 5.44365C3.16534 5.32713 3.08712 5.14976 3.04385 4.75351C2.99893 4.34217 3.00022 3.79848 3.00383 2.98906L1.50384 2.98237ZM5.93049 5.91572C5.12107 5.91933 4.57739 5.92062 4.16604 5.8757C3.76979 5.83243 3.59242 5.75421 3.4759 5.66404L2.55786 6.85029C2.98294 7.17926 3.47227 7.30886 4.0032 7.36684C4.51905 7.42317 5.16304 7.41916 5.93718 7.41571L5.93049 5.91572ZM2.06926 6.36169C2.15834 6.4768 2.25638 6.58449 2.36242 6.68379L3.38774 5.58893C3.33992 5.54415 3.2957 5.49558 3.25551 5.44365L2.06926 6.36169ZM2.36242 6.68379C2.42487 6.74227 2.49008 6.79784 2.55786 6.85029L3.4759 5.66404C3.44532 5.64037 3.4159 5.61531 3.38774 5.58893L2.36242 6.68379ZM2.44517 5.49438L2.32025 5.63172L3.42991 6.64101L3.55483 6.50367L2.44517 5.49438Z" fill="#6E6E6E"/>
</svg>
