<svg width="22" height="23" viewBox="0 0 22 23" fill="none" xmlns="http://www.w3.org/2000/svg">
<path d="M21.75 12C21.75 11.5858 21.4142 11.25 21 11.25C20.5858 11.25 20.25 11.5858 20.25 12H21.75ZM17.001 4L16.5505 4.59962L17.001 4ZM19 5.99903L18.4004 6.44953L18.431 6.49029L18.4669 6.52653L19 5.99903ZM20.4069 0.996654C20.405 0.582444 20.0677 0.248159 19.6535 0.250007C19.2393 0.251856 18.905 0.589137 18.9069 1.00335L20.4069 0.996654ZM19.6657 2.98571L20.4157 2.98237V2.98237L19.6657 2.98571ZM15.9857 6.66571L15.9824 7.41571L15.9857 6.66571ZM14.0034 5.90686C13.5891 5.90501 13.2519 6.2393 13.25 6.65351C13.2482 7.06772 13.5824 7.405 13.9967 7.40685L14.0034 5.90686ZM19.2572 5.90267L19.8503 6.36169V6.36169L19.2572 5.90267ZM18.9027 6.25717L19.3617 6.85029L19.3617 6.85029L18.9027 6.25717ZM19.0912 6.09117L19.6215 6.6215L19.0912 6.09117ZM20.25 12C20.25 17.1086 16.1086 21.25 11 21.25V22.75C16.9371 22.75 21.75 17.9371 21.75 12H20.25ZM11 21.25C5.89137 21.25 1.75 17.1086 1.75 12H0.25C0.25 17.9371 5.06294 22.75 11 22.75V21.25ZM1.75 12C1.75 6.89137 5.89137 2.75 11 2.75V1.25C5.06294 1.25 0.25 6.06294 0.25 12H1.75ZM11 2.75C13.0836 2.75 15.0044 3.43804 16.5505 4.59962L17.4515 3.40038C15.6546 2.05032 13.4197 1.25 11 1.25V2.75ZM16.5505 4.59962C17.2508 5.12582 17.8742 5.74916 18.4004 6.44953L19.5996 5.54852C18.9886 4.73519 18.2648 4.01145 17.4515 3.40038L16.5505 4.59962ZM18.9069 1.00335L18.9157 2.98906L20.4157 2.98237L20.4069 0.996654L18.9069 1.00335ZM15.9891 5.91572L14.0034 5.90686L13.9967 7.40685L15.9824 7.41571L15.9891 5.91572ZM18.9157 2.98906C18.9193 3.79848 18.9206 4.34217 18.8757 4.75351C18.8324 5.14976 18.7542 5.32713 18.664 5.44365L19.8503 6.36169C20.1793 5.93661 20.3089 5.44728 20.3668 4.91635C20.4232 4.4005 20.4192 3.75651 20.4157 2.98237L18.9157 2.98906ZM15.9824 7.41571C16.7565 7.41916 17.4005 7.42317 17.9164 7.36684C18.4473 7.30886 18.9366 7.17926 19.3617 6.85029L18.4437 5.66404C18.3271 5.75421 18.1498 5.83243 17.7535 5.8757C17.3422 5.92062 16.7985 5.91933 15.9891 5.91572L15.9824 7.41571ZM18.664 5.44365C18.6321 5.4849 18.5976 5.52404 18.5608 5.56084L19.6215 6.6215C19.7031 6.5399 19.7795 6.45314 19.8503 6.36169L18.664 5.44365ZM18.5608 5.56084C18.524 5.59764 18.4849 5.63211 18.4437 5.66404L19.3617 6.85029C19.4531 6.77952 19.5399 6.7031 19.6215 6.6215L18.5608 5.56084ZM18.4669 6.52653L18.558 6.61867L19.6243 5.56367L19.5331 5.47152L18.4669 6.52653Z" fill="#6E6E6E"/>
</svg>
