<svg width="750" height="333" viewBox="0 0 150 333" fill="none" xmlns="http://www.w3.org/2000/svg">
<g clip-path="url(#clip0_109_6248)">
<path d="M154.842 152.199C154.067 150.728 152.86 149.543 151.391 148.808C148.195 147.034 145.933 144.368 143.995 141.222C138.506 132.295 133.001 123.368 126.902 114.867C122.27 108.392 116.572 102.809 110.975 97.1943C109.899 96.0432 108.746 94.9707 107.523 93.9848C103.192 90.6063 99.734 86.1994 97.4482 81.1464C95.9041 77.9921 93.503 76.2808 90.1909 75.2004C83.3969 73.0002 76.6877 70.4689 70.0327 67.8586C66.9445 66.6521 64.6283 64.0655 61.7254 62.5277C61.0537 62.1728 61.1155 61.5498 61.4706 60.9505C62.0566 59.8862 63.0043 59.0782 64.1342 58.6794C64.9165 58.436 65.6182 57.9778 66.1628 57.3548C66.7074 56.7317 67.074 55.9678 67.2224 55.1465C67.6 53.6006 68.2716 52.1456 69.1989 50.8644C70.743 48.5775 70.5963 47.6627 68.3496 46.1328C68.0719 45.9595 67.8531 45.703 67.7233 45.3982C67.5934 45.0934 67.5587 44.7551 67.6239 44.4294C67.6974 43.1707 67.8992 41.9232 68.2261 40.7073C69.3283 37.4955 70.0111 34.1493 70.2566 30.7552C70.5378 27.7472 70.1905 24.7125 69.2375 21.852C68.7125 20.3773 67.9404 19.0288 67.3923 17.6251C67.2987 17.3122 67.1327 17.027 66.9082 16.7936C66.6838 16.5603 66.4075 16.3856 66.1029 16.2845C65.8644 16.2329 65.639 16.1312 65.441 15.986C65.243 15.8407 65.0767 15.655 64.9526 15.4407C64.6847 14.9596 64.2885 14.5663 63.81 14.3065C63.3315 14.0468 62.7906 13.9315 62.2504 13.9739C61.0383 13.9739 59.8802 13.7925 59.1004 12.6727C59.0387 12.586 58.9306 12.4677 58.8611 12.4677C56.6685 12.6175 54.8696 11.2138 52.7928 11.0403C52.2084 11.0375 51.6413 10.838 51.1792 10.4725C50.0752 9.47891 48.8631 9.40794 47.427 9.62086C44.5087 10.0625 41.5749 10.3543 38.8341 11.6318C37.6452 12.1759 36.518 12.791 35.3831 13.3982C31.6618 15.3855 29.8629 18.4295 30.0636 22.7589C30.1036 24.2475 29.7771 25.7226 29.114 27.0488C28.1215 29.4663 27.6705 32.0798 27.7938 34.6982C27.7938 35.9994 27.4232 36.8037 26.0027 36.851C24.8369 36.8984 24.335 37.6396 24.2655 38.791C24.0178 42.7152 25.0199 46.6159 27.1221 49.9102C27.5583 50.8074 28.2464 51.5514 29.0986 52.0473C31.3066 53.0646 32.0478 54.973 32.2794 57.2047C32.4011 59.23 32.7087 61.2393 33.1982 63.2059C33.3093 63.6033 33.3216 64.0227 33.234 64.4262C33.1463 64.8296 32.9615 65.2044 32.6963 65.5165C31.3258 67.2893 30.2987 69.3126 29.6699 71.4783C29.3688 72.6454 28.3806 73.2132 27.5004 73.844C23.8255 76.3045 20.1273 78.7491 16.6917 81.5171C15.0087 82.8813 13.4105 84.3481 11.7969 85.807C10.0444 87.3842 9.54254 89.5765 9.58887 91.7925C9.76644 99.9702 6.63963 107.225 3.73672 114.551C2.47828 117.501 0.911021 120.363 0.177574 123.541C-0.115806 124.819 0.00772262 125.907 1.21212 126.696C3.59004 128.273 3.96062 129.487 2.75622 132.169C1.44529 134.896 0.589414 137.828 0.223897 140.843C0.100369 142.089 0.092648 143.359 0.0231635 144.613C-0.0376861 145.925 0.362004 147.217 1.15036 148.256C2.94923 150.787 3.33526 153.831 3.83709 156.796C4.16135 158.744 4.36208 160.739 4.60914 162.671C4.79646 164.201 5.224 165.689 5.8753 167.08C6.7786 168.949 8.00616 170.542 10.2683 170.321C11.408 170.267 12.5085 169.88 13.4382 169.204C14.3679 168.529 15.0874 167.594 15.5105 166.512C15.6387 166.018 15.8787 165.561 16.2113 165.179C16.5438 164.797 16.9596 164.5 17.4252 164.312C18.1087 163.993 18.6569 163.433 18.9693 162.734C19.3358 161.997 19.9662 161.432 20.7295 161.157C21.2989 160.975 21.7933 160.606 22.1354 160.106C22.4776 159.607 22.6484 159.006 22.6211 158.397C22.7369 156.694 22.8141 154.998 22.9222 153.303C22.973 152.839 22.8931 152.37 22.6921 151.951C22.4911 151.532 22.1772 151.18 21.7873 150.937C20.3204 149.928 18.8612 148.824 17.4561 147.783C16.7964 147.379 16.2999 146.748 16.0563 146.003C15.8127 145.258 15.8382 144.449 16.1281 143.721C17.348 140.622 17.1472 137.35 17.541 134.156C17.7572 132.579 17.8035 131.143 19.4788 130.158C21.1542 129.172 21.0924 127.24 21.0229 125.536C20.9891 123.099 21.8107 120.729 23.3391 118.857C23.9799 117.99 24.3582 117.99 24.7365 118.975C25.4391 120.789 27.0526 122.027 27.8247 123.762C29.8224 128.087 30.8961 132.797 30.9747 137.578C30.9693 140.323 30.8249 143.066 30.5423 145.795C30.3647 148.004 30.0945 150.18 28.6045 151.962C26.7515 154.17 26.8982 156.804 27.1376 159.446C27.3769 161.906 27.4618 164.375 27.7861 166.819C28.1567 169.643 26.9677 171.898 25.385 173.917C24.6031 174.79 24.034 175.839 23.7241 176.979C23.4141 178.119 23.3722 179.318 23.6016 180.478C24.4122 184.421 25.3464 188.364 27.3229 191.976C29.5309 196.061 30.1022 200.713 29.971 205.382C29.8243 210.823 28.5659 216.146 28.2493 221.572C28.2493 221.8 28.1798 222.013 28.1798 222.234C27.9791 229.047 27.4078 227.644 32.1791 231.169C32.771 231.548 33.2673 232.063 33.6281 232.674C33.9889 233.285 34.2039 233.974 34.2559 234.686C34.3794 236.547 34.6419 238.408 34.6805 240.269C34.818 243.614 35.3151 246.933 36.1628 250.166C36.758 252.677 37.0817 255.248 37.1279 257.831C37.3055 263.769 39.444 269.187 41.3819 274.652C44.031 282.083 47.0959 289.353 50.5616 296.425C51.0101 297.422 51.3968 298.446 51.7196 299.493C51.8492 299.769 51.897 300.078 51.8573 300.382C51.8175 300.686 51.6919 300.972 51.4957 301.204C50.6619 302.142 50.9244 303.104 51.3877 304.098C52.3516 306.041 52.7817 308.215 52.6321 310.389C52.4826 312.562 51.759 314.653 50.5384 316.44C49.3099 318.515 47.6063 320.255 45.5741 321.51C44.646 322.081 43.8517 322.853 43.2474 323.771C42.6431 324.689 42.2435 325.732 42.0767 326.825C41.6367 329.065 42.6095 330.563 44.7712 331.107L46.1686 331.47H58.1431C63.3786 330.834 68.4979 329.434 73.3448 327.314C75.576 326.321 75.5606 326.273 75.1745 323.884C74.8001 320.831 74.8001 317.742 75.1745 314.689C75.3225 313.409 75.2185 312.112 74.8684 310.875C74.5184 309.637 73.9295 308.483 73.1363 307.481C71.3992 305.241 69.8242 302.884 68.2647 300.51C65.9485 297.024 65.3 293.042 64.9989 288.941C64.5125 282.38 64.003 275.819 63.4548 269.226C63.1955 265.658 62.339 262.161 60.9225 258.888C60.1729 256.94 59.8437 254.85 59.9574 252.76C59.9574 247.65 59.6409 242.556 59.3475 237.462C59.1011 233.349 59.3004 229.22 59.942 225.152C60.2354 223.291 61.1078 221.855 63.0842 221.43C63.8563 221.264 64.528 221.359 64.4739 222.258C64.3349 224.387 65.3 226.09 66.0875 227.951C67.1915 230.569 67.4077 233.471 67.7551 236.318C68.257 240.261 68.5812 244.252 70.3415 247.816C71.5253 250.313 72.5265 252.896 73.337 255.544C73.6964 256.755 74.3876 257.836 75.3289 258.659C75.3289 258.659 77.2977 267.507 85.7748 267.98C93.8195 268.43 102.235 256.838 110.48 246.783C110.349 251.617 110.172 255.497 111.113 258.77C113.213 266.072 115.645 272.128 121.706 269.187C124.673 267.643 127.094 265.19 128.628 262.171C130.162 259.151 130.733 255.718 130.26 252.35C129.573 247.982 126.184 241.381 125.396 229.599C125.034 224.229 120.432 220.57 116.904 220.87C113.862 221.24 110.643 224.355 109.786 227.801C107.388 229.939 104.743 231.769 101.911 233.251C102.405 231.445 102.914 229.639 103.323 227.809C104.613 222.179 104.613 216.375 105.261 210.657C105.416 208.301 105.81 205.968 106.435 203.694C107.13 201.549 106.728 199.412 106.172 197.385C104.999 193.206 105.169 188.884 104.999 184.618C104.96 183.522 104.999 182.418 104.999 181.322C104.999 177.639 104.999 177.639 108.62 176.977C112.241 176.314 111.855 176.401 110.45 173.294C108.834 169.823 106.971 166.478 104.875 163.286C102.76 159.953 101.683 156.044 101.787 152.073C101.787 148.011 101.718 143.942 101.741 139.881C101.753 138.616 101.453 137.369 100.868 136.253C99.4197 133.494 98.1307 130.65 97.0081 127.737C96.2991 126.074 95.2759 124.571 93.9971 123.313C90.7236 119.764 90.0133 115.663 91.681 111.121C92.453 108.881 93.2791 108.613 95.0625 110.135C97.5794 112.272 100.058 114.472 102.474 116.736C104.018 118.195 105.732 118.833 107.778 118.171C109.152 117.737 110.056 118.171 110.99 119.307C114.892 123.841 118.488 128.642 121.752 133.675C123.945 137.137 126.879 139.984 129.349 143.264C132.26 147.081 133.982 151.513 136.035 155.803C137.133 158.254 138.545 160.546 140.235 162.616C142.667 165.495 145.308 166.031 148.55 164.146C151.191 162.616 153.615 160.424 154.541 158.539C155.468 156.654 155.761 153.831 154.842 152.199Z" fill="black"/>
</g>
<defs>
<clipPath id="clip0_109_6248">
<rect width="550" height="333" fill="white"/>
</clipPath>
</defs>
</svg>
